<?xml version="1.0" encoding="UTF-8" standalone="no"?>
<!DOCTYPE svg PUBLIC "-//W3C//DTD SVG 1.1//EN"
 "http://www.w3.org/Graphics/SVG/1.1/DTD/svg11.dtd">
<!-- Generated by graphviz version 2.43.0 (0)
 -->
<!-- Title: G Pages: 1 -->
<svg width="3971pt" height="1225pt"
 viewBox="0.00 0.00 2978.60 918.60" xmlns="http://www.w3.org/2000/svg" xmlns:xlink="http://www.w3.org/1999/xlink">
<g id="graph0" class="graph" transform="scale(1.33 1.33) rotate(0) translate(28.8 889.8)">
<title>G</title>
<polygon fill="#0f1116" stroke="transparent" points="-28.8,28.8 -28.8,-889.8 2949.8,-889.8 2949.8,28.8 -28.8,28.8"/>
<text text-anchor="start" x="8" y="-845.8" font-family="DejaVu Sans Mono" font-size="14.00" fill="#d8dde6">DOOMSAT . DECISION GRAPH . one narrow typed question per head, over words that code made from telemetry; every answer is consumed by a rule</text>
<text text-anchor="start" x="8" y="-830.8" font-family="DejaVu Sans Mono" font-size="14.00" fill="#d8dde6">Three heads, all judgments with no exact rule behind them; everything else is code. Replaying 120 logged states on 22 Sep 2026: 2,263 median input tokens per call, 461 ms median, and jev&#39;s own ranking reproducible between identical passes on every state where the top two sat 0.10 rubric levels apart or more (0 of 51), against 30% flipping below that.</text>
<!-- h0 -->
<g id="node1" class="node">
<title>h0</title>
<path fill="#0f1116" stroke="transparent" stroke-width="1.4" d="M1107.75,-823C1107.75,-823 875.75,-823 875.75,-823 869.75,-823 863.75,-817 863.75,-811 863.75,-811 863.75,-799 863.75,-799 863.75,-793 869.75,-787 875.75,-787 875.75,-787 1107.75,-787 1107.75,-787 1113.75,-787 1119.75,-793 1119.75,-799 1119.75,-799 1119.75,-811 1119.75,-811 1119.75,-817 1113.75,-823 1107.75,-823"/>
<text text-anchor="middle" x="991.75" y="-802.2" font-family="DejaVu Sans Mono" font-size="11.00" fill="#4a5160">STATE (what code turns into words)</text>
</g>
<!-- h1 -->
<g id="node2" class="node">
<title>h1</title>
<path fill="#0f1116" stroke="transparent" stroke-width="1.4" d="M1294.75,-823C1294.75,-823 1156.75,-823 1156.75,-823 1150.75,-823 1144.75,-817 1144.75,-811 1144.75,-811 1144.75,-799 1144.75,-799 1144.75,-793 1150.75,-787 1156.75,-787 1156.75,-787 1294.75,-787 1294.75,-787 1300.75,-787 1306.75,-793 1306.75,-799 1306.75,-799 1306.75,-811 1306.75,-811 1306.75,-817 1300.75,-823 1294.75,-823"/>
<text text-anchor="middle" x="1225.75" y="-802.2" font-family="DejaVu Sans Mono" font-size="11.00" fill="#d9a441">JEV . TYPED QUESTION</text>
</g>
<!-- h0&#45;&gt;h1 -->
<!-- r0c0 -->
<g id="node5" class="node">
<title>r0c0</title>
<path fill="#161a22" stroke="#4a5160" stroke-width="1.4" d="M1148.25,-769C1148.25,-769 835.25,-769 835.25,-769 829.25,-769 823.25,-763 823.25,-757 823.25,-757 823.25,-654 823.25,-654 823.25,-648 829.25,-642 835.25,-642 835.25,-642 1148.25,-642 1148.25,-642 1154.25,-642 1160.25,-648 1160.25,-654 1160.25,-654 1160.25,-757 1160.25,-757 1160.25,-763 1154.25,-769 1148.25,-769"/>
<text text-anchor="start" x="836.25" y="-751.2" font-family="DejaVu Sans Mono" font-size="11.00" fill="#d8dde6">1. sector (the navigator)</text>
<text text-anchor="start" x="836.25" y="-726.2" font-family="DejaVu Sans Mono" font-size="11.00" fill="#d8dde6">that one sector&#39;s words: space (blocked /</text>
<text text-anchor="start" x="836.25" y="-714.2" font-family="DejaVu Sans Mono" font-size="11.00" fill="#d8dde6">tight / open / long), ground (never explored /</text>
<text text-anchor="start" x="836.25" y="-702.2" font-family="DejaVu Sans Mono" font-size="11.00" fill="#d8dde6">new / partly walked / walked before /</text>
<text text-anchor="start" x="836.25" y="-690.2" font-family="DejaVu Sans Mono" font-size="11.00" fill="#d8dde6">unknown), door (none or a distance band), and</text>
<text text-anchor="start" x="836.25" y="-678.2" font-family="DejaVu Sans Mono" font-size="11.00" fill="#d8dde6">whether the exit, a key, the ground hint or a</text>
<text text-anchor="start" x="836.25" y="-666.2" font-family="DejaVu Sans Mono" font-size="11.00" fill="#d8dde6">pickup lies there. Every bearing in the state</text>
<text text-anchor="start" x="836.25" y="-654.2" font-family="DejaVu Sans Mono" font-size="11.00" fill="#d8dde6">is binned into the same eight labels</text>
</g>
<!-- h0&#45;&gt;r0c0 -->
<!-- h2 -->
<g id="node3" class="node">
<title>h2</title>
<path fill="#0f1116" stroke="transparent" stroke-width="1.4" d="M1413.75,-823C1413.75,-823 1343.75,-823 1343.75,-823 1337.75,-823 1331.75,-817 1331.75,-811 1331.75,-811 1331.75,-799 1331.75,-799 1331.75,-793 1337.75,-787 1343.75,-787 1343.75,-787 1413.75,-787 1413.75,-787 1419.75,-787 1425.75,-793 1425.75,-799 1425.75,-799 1425.75,-811 1425.75,-811 1425.75,-817 1419.75,-823 1413.75,-823"/>
<text text-anchor="middle" x="1378.75" y="-802.2" font-family="DejaVu Sans Mono" font-size="11.00" fill="#4f8fd6">WHEN ASKED</text>
</g>
<!-- h1&#45;&gt;h2 -->
<!-- h3 -->
<g id="node4" class="node">
<title>h3</title>
<path fill="#0f1116" stroke="transparent" stroke-width="1.4" d="M1660.75,-823C1660.75,-823 1462.75,-823 1462.75,-823 1456.75,-823 1450.75,-817 1450.75,-811 1450.75,-811 1450.75,-799 1450.75,-799 1450.75,-793 1456.75,-787 1462.75,-787 1462.75,-787 1660.75,-787 1660.75,-787 1666.75,-787 1672.75,-793 1672.75,-799 1672.75,-799 1672.75,-811 1672.75,-811 1672.75,-817 1666.75,-823 1660.75,-823"/>
<text text-anchor="middle" x="1561.75" y="-802.2" font-family="DejaVu Sans Mono" font-size="11.00" fill="#3fae6a">RULE THAT CONSUMES THE ANSWER</text>
</g>
<!-- h2&#45;&gt;h3 -->
<!-- r0c1 -->
<g id="node6" class="node">
<title>r0c1</title>
<path fill="#161a22" stroke="#d9a441" stroke-width="1.4" d="M1449.75,-732.5C1449.75,-732.5 1197.75,-732.5 1197.75,-732.5 1191.75,-732.5 1185.75,-726.5 1185.75,-720.5 1185.75,-720.5 1185.75,-690.5 1185.75,-690.5 1185.75,-684.5 1191.75,-678.5 1197.75,-678.5 1197.75,-678.5 1449.75,-678.5 1449.75,-678.5 1455.75,-678.5 1461.75,-684.5 1461.75,-690.5 1461.75,-690.5 1461.75,-720.5 1461.75,-720.5 1461.75,-726.5 1455.75,-732.5 1449.75,-732.5"/>
<text text-anchor="start" x="1198.75" y="-714.7" font-family="DejaVu Sans Mono" font-size="11.00" fill="#d8dde6">Score on a shared four&#45;level rubric:</text>
<text text-anchor="start" x="1198.75" y="-702.7" font-family="DejaVu Sans Mono" font-size="11.00" fill="#d8dde6">dead end / leads on but old / worth a</text>
<text text-anchor="start" x="1198.75" y="-690.7" font-family="DejaVu Sans Mono" font-size="11.00" fill="#d8dde6">look / the way on</text>
</g>
<!-- r0c0&#45;&gt;r0c1 -->
<g id="edge4" class="edge">
<title>r0c0&#45;&gt;r0c1</title>
<path fill="none" stroke="#4a5160" d="M1160.34,-705.5C1168.75,-705.5 1177.15,-705.5 1185.56,-705.5"/>
</g>
<!-- r1c0 -->
<g id="node9" class="node">
<title>r1c0</title>
<path fill="#161a22" stroke="#4a5160" stroke-width="1.4" d="M1141.75,-624C1141.75,-624 841.75,-624 841.75,-624 835.75,-624 829.75,-618 829.75,-612 829.75,-612 829.75,-545 829.75,-545 829.75,-539 835.75,-533 841.75,-533 841.75,-533 1141.75,-533 1141.75,-533 1147.75,-533 1153.75,-539 1153.75,-545 1153.75,-545 1153.75,-612 1153.75,-612 1153.75,-618 1147.75,-624 1141.75,-624"/>
<text text-anchor="start" x="842.75" y="-606.2" font-family="DejaVu Sans Mono" font-size="11.00" fill="#d8dde6">2. danger</text>
<text text-anchor="start" x="842.75" y="-581.2" font-family="DejaVu Sans Mono" font-size="11.00" fill="#d8dde6">the nearest enemy in the sector vocabulary</text>
<text text-anchor="start" x="842.75" y="-569.2" font-family="DejaVu Sans Mono" font-size="11.00" fill="#d8dde6">with a distance band, how many are in view,</text>
<text text-anchor="start" x="842.75" y="-557.2" font-family="DejaVu Sans Mono" font-size="11.00" fill="#d8dde6">health and ammunition bands, and which sides</text>
<text text-anchor="start" x="842.75" y="-545.2" font-family="DejaVu Sans Mono" font-size="11.00" fill="#d8dde6">are open</text>
</g>
<!-- r0c0&#45;&gt;r1c0 -->
<!-- r0c2 -->
<g id="node7" class="node">
<title>r0c2</title>
<path fill="#161a22" stroke="#4f8fd6" stroke-width="1.4" d="M1676.75,-750.5C1676.75,-750.5 1498.75,-750.5 1498.75,-750.5 1492.75,-750.5 1486.75,-744.5 1486.75,-738.5 1486.75,-738.5 1486.75,-672.5 1486.75,-672.5 1486.75,-666.5 1492.75,-660.5 1498.75,-660.5 1498.75,-660.5 1676.75,-660.5 1676.75,-660.5 1682.75,-660.5 1688.75,-666.5 1688.75,-672.5 1688.75,-672.5 1688.75,-738.5 1688.75,-738.5 1688.75,-744.5 1682.75,-750.5 1676.75,-750.5"/>
<text text-anchor="start" x="1499.75" y="-732.7" font-family="DejaVu Sans Mono" font-size="11.00" fill="#d8dde6">once per open direction,</text>
<text text-anchor="start" x="1499.75" y="-720.7" font-family="DejaVu Sans Mono" font-size="11.00" fill="#d8dde6">every tick (~0.5 s), in</text>
<text text-anchor="start" x="1499.75" y="-708.7" font-family="DejaVu Sans Mono" font-size="11.00" fill="#d8dde6">EXPLORE and APPROACH; a</text>
<text text-anchor="start" x="1499.75" y="-696.7" font-family="DejaVu Sans Mono" font-size="11.00" fill="#d8dde6">blocked direction and one</text>
<text text-anchor="start" x="1499.75" y="-684.7" font-family="DejaVu Sans Mono" font-size="11.00" fill="#d8dde6">with missing telemetry are</text>
<text text-anchor="start" x="1499.75" y="-672.7" font-family="DejaVu Sans Mono" font-size="11.00" fill="#d8dde6">not offered</text>
</g>
<!-- r0c1&#45;&gt;r0c2 -->
<g id="edge5" class="edge">
<title>r0c1&#45;&gt;r0c2</title>
<path fill="none" stroke="#4a5160" d="M1461.94,-705.5C1470.13,-705.5 1478.32,-705.5 1486.51,-705.5"/>
</g>
<!-- r0c3 -->
<g id="node8" class="node">
<title>r0c3</title>
<path fill="#161a22" stroke="#3fae6a" stroke-width="1.4" d="M2085.75,-762.5C2085.75,-762.5 1725.75,-762.5 1725.75,-762.5 1719.75,-762.5 1713.75,-756.5 1713.75,-750.5 1713.75,-750.5 1713.75,-660.5 1713.75,-660.5 1713.75,-654.5 1719.75,-648.5 1725.75,-648.5 1725.75,-648.5 2085.75,-648.5 2085.75,-648.5 2091.75,-648.5 2097.75,-654.5 2097.75,-660.5 2097.75,-660.5 2097.75,-750.5 2097.75,-750.5 2097.75,-756.5 2091.75,-762.5 2085.75,-762.5"/>
<text text-anchor="start" x="1726.75" y="-744.7" font-family="DejaVu Sans Mono" font-size="11.00" fill="#d8dde6">code ranks the scores, adds the goal&#39;s weight and</text>
<text text-anchor="start" x="1726.75" y="-732.7" font-family="DejaVu Sans Mono" font-size="11.00" fill="#d8dde6">subtracts a level from a direction just held without</text>
<text text-anchor="start" x="1726.75" y="-720.7" font-family="DejaVu Sans Mono" font-size="11.00" fill="#d8dde6">getting anywhere, then keeps the committed WORLD</text>
<text text-anchor="start" x="1726.75" y="-708.7" font-family="DejaVu Sans Mono" font-size="11.00" fill="#d8dde6">BEARING unless another sector beats it by</text>
<text text-anchor="start" x="1726.75" y="-696.7" font-family="DejaVu Sans Mono" font-size="11.00" fill="#d8dde6">sector_margin (capped below one rubric level, so a</text>
<text text-anchor="start" x="1726.75" y="-684.7" font-family="DejaVu Sans Mono" font-size="11.00" fill="#d8dde6">whole level always wins); a top&#45;two gap under</text>
<text text-anchor="start" x="1726.75" y="-672.7" font-family="DejaVu Sans Mono" font-size="11.00" fill="#d8dde6">unsure_gap (0.10, calibrated from replay) goes to the</text>
<text text-anchor="start" x="1726.75" y="-660.7" font-family="DejaVu Sans Mono" font-size="11.00" fill="#d8dde6">named frontier fallback</text>
</g>
<!-- r0c2&#45;&gt;r0c3 -->
<g id="edge6" class="edge">
<title>r0c2&#45;&gt;r0c3</title>
<path fill="none" stroke="#4a5160" d="M1688.99,-705.5C1697.17,-705.5 1705.36,-705.5 1713.54,-705.5"/>
</g>
<!-- r1c1 -->
<g id="node10" class="node">
<title>r1c1</title>
<path fill="#161a22" stroke="#d9a441" stroke-width="1.4" d="M1430.25,-599.5C1430.25,-599.5 1191.25,-599.5 1191.25,-599.5 1185.25,-599.5 1179.25,-593.5 1179.25,-587.5 1179.25,-587.5 1179.25,-569.5 1179.25,-569.5 1179.25,-563.5 1185.25,-557.5 1191.25,-557.5 1191.25,-557.5 1430.25,-557.5 1430.25,-557.5 1436.25,-557.5 1442.25,-563.5 1442.25,-569.5 1442.25,-569.5 1442.25,-587.5 1442.25,-587.5 1442.25,-593.5 1436.25,-599.5 1430.25,-599.5"/>
<text text-anchor="start" x="1192.25" y="-581.7" font-family="DejaVu Sans Mono" font-size="11.00" fill="#d8dde6">Score on four levels: no danger / a</text>
<text text-anchor="start" x="1192.25" y="-569.7" font-family="DejaVu Sans Mono" font-size="11.00" fill="#d8dde6">fight to win / under fire / get out</text>
</g>
<!-- r1c0&#45;&gt;r1c1 -->
<g id="edge8" class="edge">
<title>r1c0&#45;&gt;r1c1</title>
<path fill="none" stroke="#4a5160" d="M1154.05,-578.5C1162.42,-578.5 1170.78,-578.5 1179.15,-578.5"/>
</g>
<!-- r2c0 -->
<g id="node13" class="node">
<title>r2c0</title>
<path fill="#161a22" stroke="#4a5160" stroke-width="1.4" d="M1134.75,-515C1134.75,-515 848.75,-515 848.75,-515 842.75,-515 836.75,-509 836.75,-503 836.75,-503 836.75,-424 836.75,-424 836.75,-418 842.75,-412 848.75,-412 848.75,-412 1134.75,-412 1134.75,-412 1140.75,-412 1146.75,-418 1146.75,-424 1146.75,-424 1146.75,-503 1146.75,-503 1146.75,-509 1140.75,-515 1134.75,-515"/>
<text text-anchor="start" x="849.75" y="-497.2" font-family="DejaVu Sans Mono" font-size="11.00" fill="#d8dde6">3. goal</text>
<text text-anchor="start" x="849.75" y="-472.2" font-family="DejaVu Sans Mono" font-size="11.00" fill="#d8dde6">health, armor, ammunition, the enemy, and</text>
<text text-anchor="start" x="849.75" y="-460.2" font-family="DejaVu Sans Mono" font-size="11.00" fill="#d8dde6">where the exit, a key and each pickup were</text>
<text text-anchor="start" x="849.75" y="-448.2" font-family="DejaVu Sans Mono" font-size="11.00" fill="#d8dde6">seen &#45;&#45; all in the same eight direction</text>
<text text-anchor="start" x="849.75" y="-436.2" font-family="DejaVu Sans Mono" font-size="11.00" fill="#d8dde6">labels; the standing order rides on this</text>
<text text-anchor="start" x="849.75" y="-424.2" font-family="DejaVu Sans Mono" font-size="11.00" fill="#d8dde6">question, not in the state</text>
</g>
<!-- r1c0&#45;&gt;r2c0 -->
<!-- r1c2 -->
<g id="node11" class="node">
<title>r1c2</title>
<path fill="#161a22" stroke="#4f8fd6" stroke-width="1.4" d="M1637.75,-599.5C1637.75,-599.5 1479.75,-599.5 1479.75,-599.5 1473.75,-599.5 1467.75,-593.5 1467.75,-587.5 1467.75,-587.5 1467.75,-569.5 1467.75,-569.5 1467.75,-563.5 1473.75,-557.5 1479.75,-557.5 1479.75,-557.5 1637.75,-557.5 1637.75,-557.5 1643.75,-557.5 1649.75,-563.5 1649.75,-569.5 1649.75,-569.5 1649.75,-587.5 1649.75,-587.5 1649.75,-593.5 1643.75,-599.5 1637.75,-599.5"/>
<text text-anchor="start" x="1480.75" y="-581.7" font-family="DejaVu Sans Mono" font-size="11.00" fill="#d8dde6">whenever an enemy is in</text>
<text text-anchor="start" x="1480.75" y="-569.7" font-family="DejaVu Sans Mono" font-size="11.00" fill="#d8dde6">view, in any mode</text>
</g>
<!-- r1c1&#45;&gt;r1c2 -->
<g id="edge9" class="edge">
<title>r1c1&#45;&gt;r1c2</title>
<path fill="none" stroke="#4a5160" d="M1442.5,-578.5C1450.83,-578.5 1459.15,-578.5 1467.48,-578.5"/>
</g>
<!-- r1c3 -->
<g id="node12" class="node">
<title>r1c3</title>
<path fill="#161a22" stroke="#3fae6a" stroke-width="1.4" d="M2046.75,-617.5C2046.75,-617.5 1686.75,-617.5 1686.75,-617.5 1680.75,-617.5 1674.75,-611.5 1674.75,-605.5 1674.75,-605.5 1674.75,-551.5 1674.75,-551.5 1674.75,-545.5 1680.75,-539.5 1686.75,-539.5 1686.75,-539.5 2046.75,-539.5 2046.75,-539.5 2052.75,-539.5 2058.75,-545.5 2058.75,-551.5 2058.75,-551.5 2058.75,-605.5 2058.75,-605.5 2058.75,-611.5 2052.75,-617.5 2046.75,-617.5"/>
<text text-anchor="start" x="1687.75" y="-599.7" font-family="DejaVu Sans Mono" font-size="11.00" fill="#d8dde6">at or above danger_sidestep (1.5) code strafes into</text>
<text text-anchor="start" x="1687.75" y="-587.7" font-family="DejaVu Sans Mono" font-size="11.00" fill="#d8dde6">the open side, preferring a long passage; at or above</text>
<text text-anchor="start" x="1687.75" y="-575.7" font-family="DejaVu Sans Mono" font-size="11.00" fill="#d8dde6">danger_retreat (2.5) it backs off. Firing, the weapon</text>
<text text-anchor="start" x="1687.75" y="-563.7" font-family="DejaVu Sans Mono" font-size="11.00" fill="#d8dde6">and the aim are not asked: they are exact rules over</text>
<text text-anchor="start" x="1687.75" y="-551.7" font-family="DejaVu Sans Mono" font-size="11.00" fill="#d8dde6">numbers code already has</text>
</g>
<!-- r1c2&#45;&gt;r1c3 -->
<g id="edge10" class="edge">
<title>r1c2&#45;&gt;r1c3</title>
<path fill="none" stroke="#4a5160" d="M1649.89,-578.5C1658.08,-578.5 1666.26,-578.5 1674.45,-578.5"/>
</g>
<!-- r2c1 -->
<g id="node14" class="node">
<title>r2c1</title>
<path fill="#161a22" stroke="#d9a441" stroke-width="1.4" d="M1457.25,-484.5C1457.25,-484.5 1184.25,-484.5 1184.25,-484.5 1178.25,-484.5 1172.25,-478.5 1172.25,-472.5 1172.25,-472.5 1172.25,-454.5 1172.25,-454.5 1172.25,-448.5 1178.25,-442.5 1184.25,-442.5 1184.25,-442.5 1457.25,-442.5 1457.25,-442.5 1463.25,-442.5 1469.25,-448.5 1469.25,-454.5 1469.25,-454.5 1469.25,-472.5 1469.25,-472.5 1469.25,-478.5 1463.25,-484.5 1457.25,-484.5"/>
<text text-anchor="start" x="1185.25" y="-466.7" font-family="DejaVu Sans Mono" font-size="11.00" fill="#d8dde6">Choice: Explore / Scout / Kill enemies /</text>
<text text-anchor="start" x="1185.25" y="-454.7" font-family="DejaVu Sans Mono" font-size="11.00" fill="#d8dde6">Restore health / Stock ammo / Add armor</text>
</g>
<!-- r2c0&#45;&gt;r2c1 -->
<g id="edge12" class="edge">
<title>r2c0&#45;&gt;r2c1</title>
<path fill="none" stroke="#4a5160" d="M1146.93,-463.5C1155.31,-463.5 1163.68,-463.5 1172.05,-463.5"/>
</g>
<!-- r3c0 -->
<g id="node17" class="node">
<title>r3c0</title>
<path fill="#161a22" stroke="#4a5160" stroke-width="1.4" d="M1134.75,-394C1134.75,-394 848.75,-394 848.75,-394 842.75,-394 836.75,-388 836.75,-382 836.75,-382 836.75,-327 836.75,-327 836.75,-321 842.75,-315 848.75,-315 848.75,-315 1134.75,-315 1134.75,-315 1140.75,-315 1146.75,-321 1146.75,-327 1146.75,-327 1146.75,-382 1146.75,-382 1146.75,-388 1140.75,-394 1134.75,-394"/>
<text text-anchor="start" x="849.75" y="-376.2" font-family="DejaVu Sans Mono" font-size="11.00" fill="#d8dde6">Code: the mode machine</text>
<text text-anchor="start" x="849.75" y="-351.2" font-family="DejaVu Sans Mono" font-size="11.00" fill="#d8dde6">stuck, what is at arm&#39;s length, whether an</text>
<text text-anchor="start" x="849.75" y="-339.2" font-family="DejaVu Sans Mono" font-size="11.00" fill="#d8dde6">enemy is in view, whether the level is</text>
<text text-anchor="start" x="849.75" y="-327.2" font-family="DejaVu Sans Mono" font-size="11.00" fill="#d8dde6">finished</text>
</g>
<!-- r2c0&#45;&gt;r3c0 -->
<!-- r2c2 -->
<g id="node15" class="node">
<title>r2c2</title>
<path fill="#161a22" stroke="#4f8fd6" stroke-width="1.4" d="M1657.25,-484.5C1657.25,-484.5 1506.25,-484.5 1506.25,-484.5 1500.25,-484.5 1494.25,-478.5 1494.25,-472.5 1494.25,-472.5 1494.25,-454.5 1494.25,-454.5 1494.25,-448.5 1500.25,-442.5 1506.25,-442.5 1506.25,-442.5 1657.25,-442.5 1657.25,-442.5 1663.25,-442.5 1669.25,-448.5 1669.25,-454.5 1669.25,-454.5 1669.25,-472.5 1669.25,-472.5 1669.25,-478.5 1663.25,-484.5 1657.25,-484.5"/>
<text text-anchor="start" x="1507.25" y="-466.7" font-family="DejaVu Sans Mono" font-size="11.00" fill="#d8dde6">every goal_every ticks</text>
<text text-anchor="start" x="1507.25" y="-454.7" font-family="DejaVu Sans Mono" font-size="11.00" fill="#d8dde6">(10)</text>
</g>
<!-- r2c1&#45;&gt;r2c2 -->
<g id="edge13" class="edge">
<title>r2c1&#45;&gt;r2c2</title>
<path fill="none" stroke="#4a5160" d="M1469.35,-463.5C1477.54,-463.5 1485.74,-463.5 1493.93,-463.5"/>
</g>
<!-- r2c3 -->
<g id="node16" class="node">
<title>r2c3</title>
<path fill="#161a22" stroke="#3fae6a" stroke-width="1.4" d="M2073.25,-490.5C2073.25,-490.5 1706.25,-490.5 1706.25,-490.5 1700.25,-490.5 1694.25,-484.5 1694.25,-478.5 1694.25,-478.5 1694.25,-448.5 1694.25,-448.5 1694.25,-442.5 1700.25,-436.5 1706.25,-436.5 1706.25,-436.5 2073.25,-436.5 2073.25,-436.5 2079.25,-436.5 2085.25,-442.5 2085.25,-448.5 2085.25,-448.5 2085.25,-478.5 2085.25,-478.5 2085.25,-484.5 2079.25,-490.5 2073.25,-490.5"/>
<text text-anchor="start" x="1707.25" y="-472.7" font-family="DejaVu Sans Mono" font-size="11.00" fill="#d8dde6">SET_GOAL, and a real effect on the next decisions:</text>
<text text-anchor="start" x="1707.25" y="-460.7" font-family="DejaVu Sans Mono" font-size="11.00" fill="#d8dde6">goal_bonus levels are added to the sector holding that</text>
<text text-anchor="start" x="1707.25" y="-448.7" font-family="DejaVu Sans Mono" font-size="11.00" fill="#d8dde6">goal&#39;s pickup, and SCOUT weights never&#45;explored ground</text>
</g>
<!-- r2c2&#45;&gt;r2c3 -->
<g id="edge14" class="edge">
<title>r2c2&#45;&gt;r2c3</title>
<path fill="none" stroke="#4a5160" d="M1669.28,-463.5C1677.46,-463.5 1685.64,-463.5 1693.82,-463.5"/>
</g>
<!-- r3c1 -->
<g id="node18" class="node">
<title>r3c1</title>
<path fill="#161a22" stroke="#d9a441" stroke-width="1.4" d="M1423.25,-375.5C1423.25,-375.5 1184.25,-375.5 1184.25,-375.5 1178.25,-375.5 1172.25,-369.5 1172.25,-363.5 1172.25,-363.5 1172.25,-345.5 1172.25,-345.5 1172.25,-339.5 1178.25,-333.5 1184.25,-333.5 1184.25,-333.5 1423.25,-333.5 1423.25,-333.5 1429.25,-333.5 1435.25,-339.5 1435.25,-345.5 1435.25,-345.5 1435.25,-363.5 1435.25,-363.5 1435.25,-369.5 1429.25,-375.5 1423.25,-375.5"/>
<text text-anchor="start" x="1185.25" y="-357.7" font-family="DejaVu Sans Mono" font-size="11.00" fill="#d8dde6">not jev: an explicit state machine,</text>
<text text-anchor="start" x="1185.25" y="-345.7" font-family="DejaVu Sans Mono" font-size="11.00" fill="#d8dde6">every transition an exact rule</text>
</g>
<!-- r3c0&#45;&gt;r3c1 -->
<g id="edge16" class="edge">
<title>r3c0&#45;&gt;r3c1</title>
<path fill="none" stroke="#4a5160" d="M1146.84,-354.5C1155.21,-354.5 1163.59,-354.5 1171.97,-354.5"/>
</g>
<!-- r4c0 -->
<g id="node21" class="node">
<title>r4c0</title>
<path fill="#161a22" stroke="#4a5160" stroke-width="1.4" d="M1144.75,-297C1144.75,-297 838.75,-297 838.75,-297 832.75,-297 826.75,-291 826.75,-285 826.75,-285 826.75,-254 826.75,-254 826.75,-248 832.75,-242 838.75,-242 838.75,-242 1144.75,-242 1144.75,-242 1150.75,-242 1156.75,-248 1156.75,-254 1156.75,-254 1156.75,-285 1156.75,-285 1156.75,-291 1150.75,-297 1144.75,-297"/>
<text text-anchor="start" x="839.75" y="-279.2" font-family="DejaVu Sans Mono" font-size="11.00" fill="#d8dde6">Code: the reflex layer</text>
<text text-anchor="start" x="839.75" y="-254.2" font-family="DejaVu Sans Mono" font-size="11.00" fill="#d8dde6">the same state, plus the turn still in flight</text>
</g>
<!-- r3c0&#45;&gt;r4c0 -->
<!-- r3c2 -->
<g id="node19" class="node">
<title>r3c2</title>
<path fill="#161a22" stroke="#4f8fd6" stroke-width="1.4" d="M1643.25,-375.5C1643.25,-375.5 1472.25,-375.5 1472.25,-375.5 1466.25,-375.5 1460.25,-369.5 1460.25,-363.5 1460.25,-363.5 1460.25,-345.5 1460.25,-345.5 1460.25,-339.5 1466.25,-333.5 1472.25,-333.5 1472.25,-333.5 1643.25,-333.5 1643.25,-333.5 1649.25,-333.5 1655.25,-339.5 1655.25,-345.5 1655.25,-345.5 1655.25,-363.5 1655.25,-363.5 1655.25,-369.5 1649.25,-375.5 1643.25,-375.5"/>
<text text-anchor="start" x="1473.25" y="-357.7" font-family="DejaVu Sans Mono" font-size="11.00" fill="#d8dde6">every tick, before jev is</text>
<text text-anchor="start" x="1473.25" y="-345.7" font-family="DejaVu Sans Mono" font-size="11.00" fill="#d8dde6">asked</text>
</g>
<!-- r3c1&#45;&gt;r3c2 -->
<g id="edge17" class="edge">
<title>r3c1&#45;&gt;r3c2</title>
<path fill="none" stroke="#4a5160" d="M1435.71,-354.5C1443.82,-354.5 1451.92,-354.5 1460.02,-354.5"/>
</g>
<!-- r3c3 -->
<g id="node20" class="node">
<title>r3c3</title>
<path fill="#161a22" stroke="#3fae6a" stroke-width="1.4" d="M2059.25,-387.5C2059.25,-387.5 1692.25,-387.5 1692.25,-387.5 1686.25,-387.5 1680.25,-381.5 1680.25,-375.5 1680.25,-375.5 1680.25,-333.5 1680.25,-333.5 1680.25,-327.5 1686.25,-321.5 1692.25,-321.5 1692.25,-321.5 2059.25,-321.5 2059.25,-321.5 2065.25,-321.5 2071.25,-327.5 2071.25,-333.5 2071.25,-333.5 2071.25,-375.5 2071.25,-375.5 2071.25,-381.5 2065.25,-387.5 2059.25,-387.5"/>
<text text-anchor="start" x="1693.25" y="-369.7" font-family="DejaVu Sans Mono" font-size="11.00" fill="#d8dde6">EXPLORE / APPROACH ask jev; OPERATE (press Use, give</text>
<text text-anchor="start" x="1693.25" y="-357.7" font-family="DejaVu Sans Mono" font-size="11.00" fill="#d8dde6">up after door_tries), RECOVER (back out until 64 units</text>
<text text-anchor="start" x="1693.25" y="-345.7" font-family="DejaVu Sans Mono" font-size="11.00" fill="#d8dde6">moved) and DONE are pure code, so those ticks make no</text>
<text text-anchor="start" x="1693.25" y="-333.7" font-family="DejaVu Sans Mono" font-size="11.00" fill="#d8dde6">model call at all</text>
</g>
<!-- r3c2&#45;&gt;r3c3 -->
<g id="edge18" class="edge">
<title>r3c2&#45;&gt;r3c3</title>
<path fill="none" stroke="#4a5160" d="M1655.26,-354.5C1663.59,-354.5 1671.91,-354.5 1680.24,-354.5"/>
</g>
<!-- r4c1 -->
<g id="node22" class="node">
<title>r4c1</title>
<path fill="#161a22" stroke="#d9a441" stroke-width="1.4" d="M1433.25,-290.5C1433.25,-290.5 1194.25,-290.5 1194.25,-290.5 1188.25,-290.5 1182.25,-284.5 1182.25,-278.5 1182.25,-278.5 1182.25,-260.5 1182.25,-260.5 1182.25,-254.5 1188.25,-248.5 1194.25,-248.5 1194.25,-248.5 1433.25,-248.5 1433.25,-248.5 1439.25,-248.5 1445.25,-254.5 1445.25,-260.5 1445.25,-260.5 1445.25,-278.5 1445.25,-278.5 1445.25,-284.5 1439.25,-290.5 1433.25,-290.5"/>
<text text-anchor="start" x="1195.25" y="-272.7" font-family="DejaVu Sans Mono" font-size="11.00" fill="#d8dde6">not jev: invariants that hold under</text>
<text text-anchor="start" x="1195.25" y="-260.7" font-family="DejaVu Sans Mono" font-size="11.00" fill="#d8dde6">every mode</text>
</g>
<!-- r4c0&#45;&gt;r4c1 -->
<g id="edge20" class="edge">
<title>r4c0&#45;&gt;r4c1</title>
<path fill="none" stroke="#4a5160" d="M1156.84,-269.5C1165.21,-269.5 1173.59,-269.5 1181.97,-269.5"/>
</g>
<!-- r5c0 -->
<g id="node25" class="node">
<title>r5c0</title>
<path fill="#161a22" stroke="#8f6fe0" stroke-width="1.4" d="M1144.75,-224C1144.75,-224 838.75,-224 838.75,-224 832.75,-224 826.75,-218 826.75,-212 826.75,-212 826.75,-157 826.75,-157 826.75,-151 832.75,-145 838.75,-145 838.75,-145 1144.75,-145 1144.75,-145 1150.75,-145 1156.75,-151 1156.75,-157 1156.75,-157 1156.75,-212 1156.75,-212 1156.75,-218 1150.75,-224 1144.75,-224"/>
<text text-anchor="start" x="839.75" y="-206.2" font-family="DejaVu Sans Mono" font-size="11.00" fill="#d8dde6">System Two: bump (Claude Sonnet 5)</text>
<text text-anchor="start" x="839.75" y="-181.2" font-family="DejaVu Sans Mono" font-size="11.00" fill="#d8dde6">seconds into the attempt, cells gained,</text>
<text text-anchor="start" x="839.75" y="-169.2" font-family="DejaVu Sans Mono" font-size="11.00" fill="#d8dde6">position, most visited spots, the map product</text>
<text text-anchor="start" x="839.75" y="-157.2" font-family="DejaVu Sans Mono" font-size="11.00" fill="#d8dde6">as text</text>
</g>
<!-- r4c0&#45;&gt;r5c0 -->
<!-- r4c2 -->
<g id="node23" class="node">
<title>r4c2</title>
<path fill="#161a22" stroke="#4f8fd6" stroke-width="1.4" d="M1633.25,-287.5C1633.25,-287.5 1482.25,-287.5 1482.25,-287.5 1476.25,-287.5 1470.25,-281.5 1470.25,-275.5 1470.25,-275.5 1470.25,-263.5 1470.25,-263.5 1470.25,-257.5 1476.25,-251.5 1482.25,-251.5 1482.25,-251.5 1633.25,-251.5 1633.25,-251.5 1639.25,-251.5 1645.25,-257.5 1645.25,-263.5 1645.25,-263.5 1645.25,-275.5 1645.25,-275.5 1645.25,-281.5 1639.25,-287.5 1633.25,-287.5"/>
<text text-anchor="start" x="1483.25" y="-266.7" font-family="DejaVu Sans Mono" font-size="11.00" fill="#d8dde6">on every command, last</text>
</g>
<!-- r4c1&#45;&gt;r4c2 -->
<g id="edge21" class="edge">
<title>r4c1&#45;&gt;r4c2</title>
<path fill="none" stroke="#4a5160" d="M1445.28,-269.5C1453.48,-269.5 1461.68,-269.5 1469.88,-269.5"/>
</g>
<!-- r4c3 -->
<g id="node24" class="node">
<title>r4c3</title>
<path fill="#161a22" stroke="#3fae6a" stroke-width="1.4" d="M2042.75,-296.5C2042.75,-296.5 1682.75,-296.5 1682.75,-296.5 1676.75,-296.5 1670.75,-290.5 1670.75,-284.5 1670.75,-284.5 1670.75,-254.5 1670.75,-254.5 1670.75,-248.5 1676.75,-242.5 1682.75,-242.5 1682.75,-242.5 2042.75,-242.5 2042.75,-242.5 2048.75,-242.5 2054.75,-248.5 2054.75,-254.5 2054.75,-254.5 2054.75,-284.5 2054.75,-284.5 2054.75,-290.5 2048.75,-296.5 2042.75,-296.5"/>
<text text-anchor="start" x="1683.75" y="-278.7" font-family="DejaVu Sans Mono" font-size="11.00" fill="#d8dde6">never fire at zero ammo; never walk into a known wall</text>
<text text-anchor="start" x="1683.75" y="-266.7" font-family="DejaVu Sans Mono" font-size="11.00" fill="#d8dde6">(unless it is a door to walk up to); never re&#45;command</text>
<text text-anchor="start" x="1683.75" y="-254.7" font-family="DejaVu Sans Mono" font-size="11.00" fill="#d8dde6">a turn still swinging; clamp the turn to max_turn_deg</text>
</g>
<!-- r4c2&#45;&gt;r4c3 -->
<g id="edge22" class="edge">
<title>r4c2&#45;&gt;r4c3</title>
<path fill="none" stroke="#4a5160" d="M1645.32,-269.5C1653.67,-269.5 1662.02,-269.5 1670.37,-269.5"/>
</g>
<!-- r5c1 -->
<g id="node26" class="node">
<title>r5c1</title>
<path fill="#161a22" stroke="#8f6fe0" stroke-width="1.4" d="M1459.75,-205.5C1459.75,-205.5 1193.75,-205.5 1193.75,-205.5 1187.75,-205.5 1181.75,-199.5 1181.75,-193.5 1181.75,-193.5 1181.75,-175.5 1181.75,-175.5 1181.75,-169.5 1187.75,-163.5 1193.75,-163.5 1193.75,-163.5 1459.75,-163.5 1459.75,-163.5 1465.75,-163.5 1471.75,-169.5 1471.75,-175.5 1471.75,-175.5 1471.75,-193.5 1471.75,-193.5 1471.75,-199.5 1465.75,-205.5 1459.75,-205.5"/>
<text text-anchor="start" x="1194.75" y="-187.7" font-family="DejaVu Sans Mono" font-size="11.00" fill="#d8dde6">not jev: a JSON&#45;schema reply with</text>
<text text-anchor="start" x="1194.75" y="-175.7" font-family="DejaVu Sans Mono" font-size="11.00" fill="#d8dde6">bearing, hold time and an optional goal</text>
</g>
<!-- r5c0&#45;&gt;r5c1 -->
<g id="edge24" class="edge">
<title>r5c0&#45;&gt;r5c1</title>
<path fill="none" stroke="#4a5160" d="M1156.96,-184.5C1165.14,-184.5 1173.32,-184.5 1181.5,-184.5"/>
</g>
<!-- r6c0 -->
<g id="node29" class="node">
<title>r6c0</title>
<path fill="#161a22" stroke="#8f6fe0" stroke-width="1.4" d="M1141.75,-127C1141.75,-127 841.75,-127 841.75,-127 835.75,-127 829.75,-121 829.75,-115 829.75,-115 829.75,-12 829.75,-12 829.75,-6 835.75,0 841.75,0 841.75,0 1141.75,0 1141.75,0 1147.75,0 1153.75,-6 1153.75,-12 1153.75,-12 1153.75,-115 1153.75,-115 1153.75,-121 1147.75,-127 1141.75,-127"/>
<text text-anchor="start" x="842.75" y="-109.2" font-family="DejaVu Sans Mono" font-size="11.00" fill="#d8dde6">System Two: after&#45;action (Claude Sonnet 5)</text>
<text text-anchor="start" x="842.75" y="-84.2" font-family="DejaVu Sans Mono" font-size="11.00" fill="#d8dde6">the episode report, built from the heads the</text>
<text text-anchor="start" x="842.75" y="-72.2" font-family="DejaVu Sans Mono" font-size="11.00" fill="#d8dde6">episode actually asked: outcome, health,</text>
<text text-anchor="start" x="842.75" y="-60.2" font-family="DejaVu Sans Mono" font-size="11.00" fill="#d8dde6">damage, cells, distance, spin windows, the</text>
<text text-anchor="start" x="842.75" y="-48.2" font-family="DejaVu Sans Mono" font-size="11.00" fill="#d8dde6">score distribution per head, what the</text>
<text text-anchor="start" x="842.75" y="-36.2" font-family="DejaVu Sans Mono" font-size="11.00" fill="#d8dde6">selection did (held, fallbacks, gaps), the</text>
<text text-anchor="start" x="842.75" y="-24.2" font-family="DejaVu Sans Mono" font-size="11.00" fill="#d8dde6">modes, the last eight decisions, plus the</text>
<text text-anchor="start" x="842.75" y="-12.2" font-family="DejaVu Sans Mono" font-size="11.00" fill="#d8dde6">current graph and the bounds code enforces</text>
</g>
<!-- r5c0&#45;&gt;r6c0 -->
<!-- r5c2 -->
<g id="node27" class="node">
<title>r5c2</title>
<path fill="#161a22" stroke="#4f8fd6" stroke-width="1.4" d="M1578.75,-202.5C1578.75,-202.5 1508.75,-202.5 1508.75,-202.5 1502.75,-202.5 1496.75,-196.5 1496.75,-190.5 1496.75,-190.5 1496.75,-178.5 1496.75,-178.5 1496.75,-172.5 1502.75,-166.5 1508.75,-166.5 1508.75,-166.5 1578.75,-166.5 1578.75,-166.5 1584.75,-166.5 1590.75,-172.5 1590.75,-178.5 1590.75,-178.5 1590.75,-190.5 1590.75,-190.5 1590.75,-196.5 1584.75,-202.5 1578.75,-202.5"/>
<text text-anchor="start" x="1509.75" y="-181.7" font-family="DejaVu Sans Mono" font-size="11.00" fill="#d8dde6">every 60 s</text>
</g>
<!-- r5c1&#45;&gt;r5c2 -->
<g id="edge25" class="edge">
<title>r5c1&#45;&gt;r5c2</title>
<path fill="none" stroke="#4a5160" d="M1472.12,-184.5C1480.33,-184.5 1488.54,-184.5 1496.74,-184.5"/>
</g>
<!-- r5c3 -->
<g id="node28" class="node">
<title>r5c3</title>
<path fill="#161a22" stroke="#3fae6a" stroke-width="1.4" d="M1995.25,-217.5C1995.25,-217.5 1628.25,-217.5 1628.25,-217.5 1622.25,-217.5 1616.25,-211.5 1616.25,-205.5 1616.25,-205.5 1616.25,-163.5 1616.25,-163.5 1616.25,-157.5 1622.25,-151.5 1628.25,-151.5 1628.25,-151.5 1995.25,-151.5 1995.25,-151.5 2001.25,-151.5 2007.25,-157.5 2007.25,-163.5 2007.25,-163.5 2007.25,-205.5 2007.25,-205.5 2007.25,-211.5 2001.25,-217.5 1995.25,-217.5"/>
<text text-anchor="start" x="1629.25" y="-199.7" font-family="DejaVu Sans Mono" font-size="11.00" fill="#d8dde6">EXPLORE_HINT(bearing, ttl): the payload steers &#39;ahead&#39;</text>
<text text-anchor="start" x="1629.25" y="-187.7" font-family="DejaVu Sans Mono" font-size="11.00" fill="#d8dde6">toward the bearing while it lasts, and the sector it</text>
<text text-anchor="start" x="1629.25" y="-175.7" font-family="DejaVu Sans Mono" font-size="11.00" fill="#d8dde6">falls in reads hint_here yes; jev still scores every</text>
<text text-anchor="start" x="1629.25" y="-163.7" font-family="DejaVu Sans Mono" font-size="11.00" fill="#d8dde6">open direction</text>
</g>
<!-- r5c2&#45;&gt;r5c3 -->
<g id="edge26" class="edge">
<title>r5c2&#45;&gt;r5c3</title>
<path fill="none" stroke="#4a5160" d="M1590.86,-184.5C1599.2,-184.5 1607.54,-184.5 1615.88,-184.5"/>
</g>
<!-- r6c1 -->
<g id="node30" class="node">
<title>r6c1</title>
<path fill="#161a22" stroke="#8f6fe0" stroke-width="1.4" d="M1430.25,-90.5C1430.25,-90.5 1191.25,-90.5 1191.25,-90.5 1185.25,-90.5 1179.25,-84.5 1179.25,-78.5 1179.25,-78.5 1179.25,-48.5 1179.25,-48.5 1179.25,-42.5 1185.25,-36.5 1191.25,-36.5 1191.25,-36.5 1430.25,-36.5 1430.25,-36.5 1436.25,-36.5 1442.25,-42.5 1442.25,-48.5 1442.25,-48.5 1442.25,-78.5 1442.25,-78.5 1442.25,-84.5 1436.25,-90.5 1430.25,-90.5"/>
<text text-anchor="start" x="1192.25" y="-72.7" font-family="DejaVu Sans Mono" font-size="11.00" fill="#d8dde6">not jev: a revised graph (question</text>
<text text-anchor="start" x="1192.25" y="-60.7" font-family="DejaVu Sans Mono" font-size="11.00" fill="#d8dde6">wording, rubric levels, thresholds,</text>
<text text-anchor="start" x="1192.25" y="-48.7" font-family="DejaVu Sans Mono" font-size="11.00" fill="#d8dde6">selection numbers) with a rationale</text>
</g>
<!-- r6c0&#45;&gt;r6c1 -->
<g id="edge28" class="edge">
<title>r6c0&#45;&gt;r6c1</title>
<path fill="none" stroke="#4a5160" d="M1154.05,-63.5C1162.42,-63.5 1170.78,-63.5 1179.15,-63.5"/>
</g>
<!-- r6c2 -->
<g id="node31" class="node">
<title>r6c2</title>
<path fill="#161a22" stroke="#4f8fd6" stroke-width="1.4" d="M1650.25,-90.5C1650.25,-90.5 1479.25,-90.5 1479.25,-90.5 1473.25,-90.5 1467.25,-84.5 1467.25,-78.5 1467.25,-78.5 1467.25,-48.5 1467.25,-48.5 1467.25,-42.5 1473.25,-36.5 1479.25,-36.5 1479.25,-36.5 1650.25,-36.5 1650.25,-36.5 1656.25,-36.5 1662.25,-42.5 1662.25,-48.5 1662.25,-48.5 1662.25,-78.5 1662.25,-78.5 1662.25,-84.5 1656.25,-90.5 1650.25,-90.5"/>
<text text-anchor="start" x="1480.25" y="-72.7" font-family="DejaVu Sans Mono" font-size="11.00" fill="#d8dde6">after every episode:</text>
<text text-anchor="start" x="1480.25" y="-60.7" font-family="DejaVu Sans Mono" font-size="11.00" fill="#d8dde6">death, level done, or the</text>
<text text-anchor="start" x="1480.25" y="-48.7" font-family="DejaVu Sans Mono" font-size="11.00" fill="#d8dde6">180 s budget</text>
</g>
<!-- r6c1&#45;&gt;r6c2 -->
<g id="edge29" class="edge">
<title>r6c1&#45;&gt;r6c2</title>
<path fill="none" stroke="#4a5160" d="M1442.71,-63.5C1450.82,-63.5 1458.92,-63.5 1467.02,-63.5"/>
</g>
<!-- r6c3 -->
<g id="node32" class="node">
<title>r6c3</title>
<path fill="#161a22" stroke="#3fae6a" stroke-width="1.4" d="M2059.75,-102.5C2059.75,-102.5 1699.75,-102.5 1699.75,-102.5 1693.75,-102.5 1687.75,-96.5 1687.75,-90.5 1687.75,-90.5 1687.75,-36.5 1687.75,-36.5 1687.75,-30.5 1693.75,-24.5 1699.75,-24.5 1699.75,-24.5 2059.75,-24.5 2059.75,-24.5 2065.75,-24.5 2071.75,-30.5 2071.75,-36.5 2071.75,-36.5 2071.75,-90.5 2071.75,-90.5 2071.75,-96.5 2065.75,-102.5 2059.75,-102.5"/>
<text text-anchor="start" x="1700.75" y="-84.7" font-family="DejaVu Sans Mono" font-size="11.00" fill="#d8dde6">code validates and REJECTS anything out of bounds &#45;&#45;</text>
<text text-anchor="start" x="1700.75" y="-72.7" font-family="DejaVu Sans Mono" font-size="11.00" fill="#d8dde6">overlong text, a number out of range, an unknown head</text>
<text text-anchor="start" x="1700.75" y="-60.7" font-family="DejaVu Sans Mono" font-size="11.00" fill="#d8dde6">or option, a criterion naming a state field that does</text>
<text text-anchor="start" x="1700.75" y="-48.7" font-family="DejaVu Sans Mono" font-size="11.00" fill="#d8dde6">not exist &#45;&#45; and hands the reason back for one more</text>
<text text-anchor="start" x="1700.75" y="-36.7" font-family="DejaVu Sans Mono" font-size="11.00" fill="#d8dde6">try, then stores graph_v&lt;N&gt;.json</text>
</g>
<!-- r6c2&#45;&gt;r6c3 -->
<g id="edge30" class="edge">
<title>r6c2&#45;&gt;r6c3</title>
<path fill="none" stroke="#4a5160" d="M1662.26,-63.5C1670.62,-63.5 1678.97,-63.5 1687.33,-63.5"/>
</g>
</g>
</svg>
