<?xml version="1.0" encoding="UTF-8" standalone="no"?>
<!DOCTYPE svg PUBLIC "-//W3C//DTD SVG 1.1//EN"
 "http://www.w3.org/Graphics/SVG/1.1/DTD/svg11.dtd">
<!-- Generated by graphviz version 2.43.0 (0)
 -->
<!-- Title: architecture Pages: 1 -->
<svg width="1516pt" height="383pt"
 viewBox="0.00 0.00 1516.20 383.20" xmlns="http://www.w3.org/2000/svg" xmlns:xlink="http://www.w3.org/1999/xlink">
<g id="graph0" class="graph" transform="scale(1 1) rotate(0) translate(21.6 361.6)">
<title>architecture</title>
<polygon fill="white" stroke="transparent" points="-21.6,21.6 -21.6,-361.6 1494.6,-361.6 1494.6,21.6 -21.6,21.6"/>
<g id="clust1" class="cluster">
<title>cluster_flight</title>
<path fill="#eef3fb" stroke="#7a8fb5" d="M20,-238C20,-238 1169,-238 1169,-238 1175,-238 1181,-244 1181,-250 1181,-250 1181,-320 1181,-320 1181,-326 1175,-332 1169,-332 1169,-332 20,-332 20,-332 14,-332 8,-326 8,-320 8,-320 8,-250 8,-250 8,-244 14,-238 20,-238"/>
<text text-anchor="middle" x="594.5" y="-317.6" font-family="Helvetica,sans-Serif" font-size="13.00">Flight side (WSL / Linux)</text>
</g>
<g id="clust3" class="cluster">
<title>cluster_ground</title>
<path fill="#f2f7ee" stroke="#8fb57a" d="M617,-128C617,-128 1453,-128 1453,-128 1459,-128 1465,-134 1465,-140 1465,-140 1465,-198 1465,-198 1465,-204 1459,-210 1453,-210 1453,-210 617,-210 617,-210 611,-210 605,-204 605,-198 605,-198 605,-140 605,-140 605,-134 611,-128 617,-128"/>
<text text-anchor="middle" x="1035" y="-195.6" font-family="Helvetica,sans-Serif" font-size="13.00">Ground side</text>
</g>
<g id="clust5" class="cluster">
<title>cluster_models</title>
<path fill="#f8eef8" stroke="#b57ab5" d="M506,-8C506,-8 877,-8 877,-8 883,-8 889,-14 889,-20 889,-20 889,-78 889,-78 889,-84 883,-90 877,-90 877,-90 506,-90 506,-90 500,-90 494,-84 494,-78 494,-78 494,-20 494,-20 494,-14 500,-8 506,-8"/>
<text text-anchor="middle" x="691.5" y="-75.6" font-family="Helvetica,sans-Serif" font-size="13.00">Models</text>
</g>
<!-- doom -->
<g id="node1" class="node">
<title>doom</title>
<path fill="#fde9d9" stroke="#444444" stroke-width="1.2" d="M240,-296C240,-296 28,-296 28,-296 22,-296 16,-290 16,-284 16,-284 16,-264 16,-264 16,-258 22,-252 28,-252 28,-252 240,-252 240,-252 246,-252 252,-258 252,-264 252,-264 252,-284 252,-284 252,-290 246,-296 240,-296"/>
<text text-anchor="middle" x="134" y="-283.2" font-family="Helvetica,sans-Serif" font-size="11.00">Doom (ViZDoom, shareware E1M1...)</text>
<text text-anchor="middle" x="134" y="-271.2" font-family="Helvetica,sans-Serif" font-size="11.00">payload/doom_payload.py</text>
<text text-anchor="middle" x="134" y="-259.2" font-family="Helvetica,sans-Serif" font-size="11.00">35 Hz game, depth + labels + automap</text>
</g>
<!-- nav -->
<g id="node2" class="node">
<title>nav</title>
<path fill="#fde9d9" stroke="#444444" stroke-width="1.2" d="M523.5,-302C523.5,-302 320.5,-302 320.5,-302 314.5,-302 308.5,-296 308.5,-290 308.5,-290 308.5,-258 308.5,-258 308.5,-252 314.5,-246 320.5,-246 320.5,-246 523.5,-246 523.5,-246 529.5,-246 535.5,-252 535.5,-258 535.5,-258 535.5,-290 535.5,-290 535.5,-296 529.5,-302 523.5,-302"/>
<text text-anchor="middle" x="422" y="-289.2" font-family="Helvetica,sans-Serif" font-size="11.00">Onboard navigator</text>
<text text-anchor="middle" x="422" y="-277.2" font-family="Helvetica,sans-Serif" font-size="11.00">(part of the payload)</text>
<text text-anchor="middle" x="422" y="-265.2" font-family="Helvetica,sans-Serif" font-size="11.00">seen&#45;lines automap &#45;&gt; map, frontiers,</text>
<text text-anchor="middle" x="422" y="-253.2" font-family="Helvetica,sans-Serif" font-size="11.00">doors, keys, exit line, barriers</text>
</g>
<!-- doom&#45;&gt;nav -->
<g id="edge1" class="edge">
<title>doom&#45;&gt;nav</title>
<path fill="none" stroke="#555555" d="M260.64,-274C273.76,-274 287.08,-274 300.15,-274"/>
<polygon fill="#555555" stroke="#555555" points="260.39,-271.2 252.39,-274 260.39,-276.8 260.39,-271.2"/>
<polygon fill="#555555" stroke="#555555" points="300.25,-276.8 308.25,-274 300.25,-271.2 300.25,-276.8"/>
<text text-anchor="middle" x="280.25" y="-279.8" font-family="Helvetica,sans-Serif" font-size="9.00">sensing</text>
</g>
<!-- fprime -->
<g id="node3" class="node">
<title>fprime</title>
<path fill="#dbe8f7" stroke="#444444" stroke-width="1.2" d="M905.5,-302C905.5,-302 676.5,-302 676.5,-302 670.5,-302 664.5,-296 664.5,-290 664.5,-290 664.5,-258 664.5,-258 664.5,-252 670.5,-246 676.5,-246 676.5,-246 905.5,-246 905.5,-246 911.5,-246 917.5,-252 917.5,-258 917.5,-258 917.5,-290 917.5,-290 917.5,-296 911.5,-302 905.5,-302"/>
<text text-anchor="middle" x="791" y="-289.2" font-family="Helvetica,sans-Serif" font-size="11.00">F´ v4.3 flight software</text>
<text text-anchor="middle" x="791" y="-277.2" font-family="Helvetica,sans-Serif" font-size="11.00">DoomSat deployment</text>
<text text-anchor="middle" x="791" y="-265.2" font-family="Helvetica,sans-Serif" font-size="11.00">DoomMission::Doom component</text>
<text text-anchor="middle" x="791" y="-253.2" font-family="Helvetica,sans-Serif" font-size="11.00">commands, 44 telemetry channels, events</text>
</g>
<!-- nav&#45;&gt;fprime -->
<g id="edge2" class="edge">
<title>nav&#45;&gt;fprime</title>
<path fill="none" stroke="#555555" d="M543.91,-274C579.88,-274 619.45,-274 656.18,-274"/>
<polygon fill="#555555" stroke="#555555" points="543.72,-271.2 535.72,-274 543.72,-276.8 543.72,-271.2"/>
<polygon fill="#555555" stroke="#555555" points="656.47,-276.8 664.47,-274 656.47,-271.2 656.47,-276.8"/>
<text text-anchor="middle" x="600" y="-289.8" font-family="Helvetica,sans-Serif" font-size="9.00">STATUS (76 B) @ 12 Hz</text>
<text text-anchor="middle" x="600" y="-279.8" font-family="Helvetica,sans-Serif" font-size="9.00">JPEG frames @ 10 fps</text>
</g>
<!-- ccsds -->
<g id="node4" class="node">
<title>ccsds</title>
<path fill="#dbe8f7" stroke="#444444" stroke-width="1.2" d="M1161,-296C1161,-296 973,-296 973,-296 967,-296 961,-290 961,-284 961,-284 961,-264 961,-264 961,-258 967,-252 973,-252 973,-252 1161,-252 1161,-252 1167,-252 1173,-258 1173,-264 1173,-264 1173,-284 1173,-284 1173,-290 1167,-296 1161,-296"/>
<text text-anchor="middle" x="1067" y="-283.2" font-family="Helvetica,sans-Serif" font-size="11.00">F´ ComCcsds stack</text>
<text text-anchor="middle" x="1067" y="-271.2" font-family="Helvetica,sans-Serif" font-size="11.00">SpacePacket + TM frames (1024 B)</text>
<text text-anchor="middle" x="1067" y="-259.2" font-family="Helvetica,sans-Serif" font-size="11.00">TC deframing</text>
</g>
<!-- fprime&#45;&gt;ccsds -->
<g id="edge3" class="edge">
<title>fprime&#45;&gt;ccsds</title>
<path fill="none" stroke="#555555" d="M925.77,-274C934.72,-274 943.67,-274 952.62,-274"/>
<polygon fill="#555555" stroke="#555555" points="925.68,-271.2 917.68,-274 925.68,-276.8 925.68,-271.2"/>
<polygon fill="#555555" stroke="#555555" points="952.84,-276.8 960.84,-274 952.84,-271.2 952.84,-276.8"/>
</g>
<!-- yamcs -->
<g id="node5" class="node">
<title>yamcs</title>
<path fill="#e2efd9" stroke="#444444" stroke-width="1.2" d="M1184,-180C1184,-180 950,-180 950,-180 944,-180 938,-174 938,-168 938,-168 938,-148 938,-148 938,-142 944,-136 950,-136 950,-136 1184,-136 1184,-136 1190,-136 1196,-142 1196,-148 1196,-148 1196,-168 1196,-168 1196,-174 1190,-180 1184,-180"/>
<text text-anchor="middle" x="1067" y="-167.2" font-family="Helvetica,sans-Serif" font-size="11.00">Yamcs 5.12 (fprime&#45;yamcs)</text>
<text text-anchor="middle" x="1067" y="-155.2" font-family="Helvetica,sans-Serif" font-size="11.00">XTCE MDB generated from the F´ dictionary</text>
<text text-anchor="middle" x="1067" y="-143.2" font-family="Helvetica,sans-Serif" font-size="11.00">TM/TC, archive, buckets, web UI</text>
</g>
<!-- ccsds&#45;&gt;yamcs -->
<g id="edge4" class="edge">
<title>ccsds&#45;&gt;yamcs</title>
<path fill="none" stroke="#555555" d="M1067,-243.7C1067,-226.75 1067,-205.49 1067,-188.51"/>
<polygon fill="#555555" stroke="#555555" points="1064.2,-243.82 1067,-251.82 1069.8,-243.82 1064.2,-243.82"/>
<polygon fill="#555555" stroke="#555555" points="1069.8,-188.06 1067,-180.06 1064.2,-188.06 1069.8,-188.06"/>
<text text-anchor="middle" x="1115.5" y="-220.8" font-family="Helvetica,sans-Serif" font-size="9.00">TM frames / TC (UDP)</text>
</g>
<!-- openmct -->
<g id="node6" class="node">
<title>openmct</title>
<path fill="#e2efd9" stroke="#444444" stroke-width="1.2" d="M1445,-176C1445,-176 1281,-176 1281,-176 1275,-176 1269,-170 1269,-164 1269,-164 1269,-152 1269,-152 1269,-146 1275,-140 1281,-140 1281,-140 1445,-140 1445,-140 1451,-140 1457,-146 1457,-152 1457,-152 1457,-164 1457,-164 1457,-170 1451,-176 1445,-176"/>
<text text-anchor="middle" x="1363" y="-161.2" font-family="Helvetica,sans-Serif" font-size="11.00">Open MCT (openmct&#45;yamcs)</text>
<text text-anchor="middle" x="1363" y="-149.2" font-family="Helvetica,sans-Serif" font-size="11.00">telemetry plots, image product</text>
</g>
<!-- yamcs&#45;&gt;openmct -->
<g id="edge5" class="edge">
<title>yamcs&#45;&gt;openmct</title>
<path fill="none" stroke="#555555" d="M1196.4,-158C1217.82,-158 1239.78,-158 1260.42,-158"/>
<polygon fill="#555555" stroke="#555555" points="1260.57,-160.8 1268.57,-158 1260.57,-155.2 1260.57,-160.8"/>
<text text-anchor="middle" x="1232.5" y="-163.8" font-family="Helvetica,sans-Serif" font-size="9.00">WebSocket</text>
</g>
<!-- pilot -->
<g id="node7" class="node">
<title>pilot</title>
<path fill="#fff2cc" stroke="#444444" stroke-width="1.2" d="M805,-180C805,-180 625,-180 625,-180 619,-180 613,-174 613,-168 613,-168 613,-148 613,-148 613,-142 619,-136 625,-136 625,-136 805,-136 805,-136 811,-136 817,-142 817,-148 817,-148 817,-168 817,-168 817,-174 811,-180 805,-180"/>
<text text-anchor="middle" x="715" y="-167.2" font-family="Helvetica,sans-Serif" font-size="11.00">Ground pilot</text>
<text text-anchor="middle" x="715" y="-155.2" font-family="Helvetica,sans-Serif" font-size="11.00">ground/pilot.py</text>
<text text-anchor="middle" x="715" y="-143.2" font-family="Helvetica,sans-Serif" font-size="11.00">telemetry &#45;&gt; words &#45;&gt; commands</text>
</g>
<!-- yamcs&#45;&gt;pilot -->
<g id="edge6" class="edge">
<title>yamcs&#45;&gt;pilot</title>
<path fill="none" stroke="#555555" d="M937.81,-158C900.88,-158 860.99,-158 825.31,-158"/>
<polygon fill="#555555" stroke="#555555" points="825.29,-155.2 817.29,-158 825.29,-160.8 825.29,-155.2"/>
<text text-anchor="middle" x="877.5" y="-173.8" font-family="Helvetica,sans-Serif" font-size="9.00">parameter subscription</text>
<text text-anchor="middle" x="877.5" y="-163.8" font-family="Helvetica,sans-Serif" font-size="9.00">(WebSocket)</text>
</g>
<!-- pilot&#45;&gt;yamcs -->
<g id="edge7" class="edge">
<title>pilot&#45;&gt;yamcs</title>
<path fill="none" stroke="#555555" d="M817.11,-136.26C820.77,-135.79 824.41,-135.36 828,-135 871.78,-130.59 883.15,-131.42 927,-135 927.89,-135.07 928.78,-135.15 929.68,-135.23"/>
<polygon fill="#555555" stroke="#555555" points="929.57,-138.03 937.8,-135.99 930.1,-132.45 929.57,-138.03"/>
<text text-anchor="middle" x="877.5" y="-147.8" font-family="Helvetica,sans-Serif" font-size="9.00">CONTROL / SET_GOAL</text>
<text text-anchor="middle" x="877.5" y="-137.8" font-family="Helvetica,sans-Serif" font-size="9.00">commands (HTTP)</text>
</g>
<!-- jev -->
<g id="node8" class="node">
<title>jev</title>
<path fill="#ead1ea" stroke="#444444" stroke-width="1.2" d="M666.5,-60C666.5,-60 513.5,-60 513.5,-60 507.5,-60 501.5,-54 501.5,-48 501.5,-48 501.5,-28 501.5,-28 501.5,-22 507.5,-16 513.5,-16 513.5,-16 666.5,-16 666.5,-16 672.5,-16 678.5,-22 678.5,-28 678.5,-28 678.5,-48 678.5,-48 678.5,-54 672.5,-60 666.5,-60"/>
<text text-anchor="middle" x="590" y="-47.2" font-family="Helvetica,sans-Serif" font-size="11.00">System One: jev (TypeSafe)</text>
<text text-anchor="middle" x="590" y="-35.2" font-family="Helvetica,sans-Serif" font-size="11.00">live play, ~0.5 s per decision</text>
<text text-anchor="middle" x="590" y="-23.2" font-family="Helvetica,sans-Serif" font-size="11.00">7 control heads + goal head</text>
</g>
<!-- pilot&#45;&gt;jev -->
<g id="edge8" class="edge">
<title>pilot&#45;&gt;jev</title>
<path fill="none" stroke="#555555" d="M678.23,-130.74C672.99,-126.63 667.77,-122.31 663,-118 645.13,-101.87 626.75,-81.96 612.9,-66.16"/>
<polygon fill="#555555" stroke="#555555" points="676.79,-133.17 684.84,-135.83 680.21,-128.73 676.79,-133.17"/>
<polygon fill="#555555" stroke="#555555" points="615,-64.31 607.64,-60.11 610.77,-67.98 615,-64.31"/>
<text text-anchor="middle" x="699.5" y="-110.8" font-family="Helvetica,sans-Serif" font-size="9.00">typed questions</text>
<text text-anchor="middle" x="699.5" y="-100.8" font-family="Helvetica,sans-Serif" font-size="9.00">(Choice)</text>
</g>
<!-- sonnet -->
<g id="node9" class="node">
<title>sonnet</title>
<path fill="#ead1ea" stroke="#444444" stroke-width="1.2" d="M869,-60C869,-60 713,-60 713,-60 707,-60 701,-54 701,-48 701,-48 701,-28 701,-28 701,-22 707,-16 713,-16 713,-16 869,-16 869,-16 875,-16 881,-22 881,-28 881,-28 881,-48 881,-48 881,-54 875,-60 869,-60"/>
<text text-anchor="middle" x="791" y="-47.2" font-family="Helvetica,sans-Serif" font-size="11.00">System Two: Claude Sonnet 5</text>
<text text-anchor="middle" x="791" y="-35.2" font-family="Helvetica,sans-Serif" font-size="11.00">after&#45;action review only</text>
<text text-anchor="middle" x="791" y="-23.2" font-family="Helvetica,sans-Serif" font-size="11.00">rewrites the decision graph</text>
</g>
<!-- pilot&#45;&gt;sonnet -->
<g id="edge9" class="edge">
<title>pilot&#45;&gt;sonnet</title>
<path fill="none" stroke="#555555" d="M732.99,-129.07C744.96,-110.48 760.65,-86.12 772.69,-67.43"/>
<polygon fill="#555555" stroke="#555555" points="730.57,-127.66 728.59,-135.9 735.27,-130.69 730.57,-127.66"/>
<polygon fill="#555555" stroke="#555555" points="775.3,-68.55 777.27,-60.31 770.59,-65.52 775.3,-68.55"/>
<text text-anchor="middle" x="794" y="-110.8" font-family="Helvetica,sans-Serif" font-size="9.00">after&#45;action report</text>
<text text-anchor="middle" x="794" y="-100.8" font-family="Helvetica,sans-Serif" font-size="9.00">(per episode)</text>
</g>
</g>
</svg>
