<?xml version="1.0" encoding="UTF-8" standalone="no"?>
<!DOCTYPE svg PUBLIC "-//W3C//DTD SVG 1.1//EN"
 "http://www.w3.org/Graphics/SVG/1.1/DTD/svg11.dtd">
<!-- Generated by graphviz version 16.1.0 (20260904.0139)
 -->
<!-- Title: dataflow Pages: 1 -->
<svg width="1140pt" height="1638pt"
 viewBox="0.00 0.00 1140.00 1638.00" xmlns="http://www.w3.org/2000/svg" xmlns:xlink="http://www.w3.org/1999/xlink">
<g id="graph0" class="graph" transform="scale(1.33333 1.33333) rotate(0) translate(14.4 1214.15)">
<title>dataflow</title>
<polygon fill="white" stroke="none" points="-14.4,14.4 -14.4,-1214.15 840.79,-1214.15 840.79,14.4 -14.4,14.4"/>
<!-- game -->
<g id="node1" class="node">
<title>game</title>
<path fill="#fde9d9" stroke="#444444" stroke-width="1.3" d="M287.79,-1199.75C287.79,-1199.75 31.5,-1199.75 31.5,-1199.75 25.5,-1199.75 19.5,-1193.75 19.5,-1187.75 19.5,-1187.75 19.5,-1161.35 19.5,-1161.35 19.5,-1155.35 25.5,-1149.35 31.5,-1149.35 31.5,-1149.35 287.79,-1149.35 287.79,-1149.35 293.79,-1149.35 299.79,-1155.35 299.79,-1161.35 299.79,-1161.35 299.79,-1187.75 299.79,-1187.75 299.79,-1193.75 293.79,-1199.75 287.79,-1199.75"/>
<text xml:space="preserve" text-anchor="middle" x="159.65" y="-1178.3" font-family="Helvetica,sans-Serif" font-size="15.00">Doom engine</text>
<text xml:space="preserve" text-anchor="middle" x="159.65" y="-1160.3" font-family="Helvetica,sans-Serif" font-size="15.00">ViZDoom 1.3, shareware E1M1, 35 Hz</text>
</g>
<!-- sense -->
<g id="node2" class="node">
<title>sense</title>
<path fill="#fde9d9" stroke="#444444" stroke-width="1.3" d="M307.29,-1105.1C307.29,-1105.1 12,-1105.1 12,-1105.1 6,-1105.1 0,-1099.1 0,-1093.1 0,-1093.1 0,-1030.7 0,-1030.7 0,-1024.7 6,-1018.7 12,-1018.7 12,-1018.7 307.29,-1018.7 307.29,-1018.7 313.29,-1018.7 319.29,-1024.7 319.29,-1030.7 319.29,-1030.7 319.29,-1093.1 319.29,-1093.1 319.29,-1099.1 313.29,-1105.1 307.29,-1105.1"/>
<text xml:space="preserve" text-anchor="middle" x="159.65" y="-1083.65" font-family="Helvetica,sans-Serif" font-size="15.00">Payload sensing (code, no planner)</text>
<text xml:space="preserve" text-anchor="middle" x="159.65" y="-1065.65" font-family="Helvetica,sans-Serif" font-size="15.00">screen 640x480, depth buffer, labels,</text>
<text xml:space="preserve" text-anchor="middle" x="159.65" y="-1047.65" font-family="Helvetica,sans-Serif" font-size="15.00">automap (seen lines only), HUD variables;</text>
<text xml:space="preserve" text-anchor="middle" x="159.65" y="-1029.65" font-family="Helvetica,sans-Serif" font-size="15.00">map memory; 8 directions x (space, ground)</text>
</g>
<!-- game&#45;&gt;sense -->
<g id="edge1" class="edge">
<title>game&#45;&gt;sense</title>
<path fill="none" stroke="#555555" d="M159.65,-1148.72C159.65,-1138.66 159.65,-1126.65 159.65,-1114.85"/>
<polygon fill="#555555" stroke="#555555" points="162.45,-1114.98 159.65,-1106.98 156.85,-1114.98 162.45,-1114.98"/>
<text xml:space="preserve" text-anchor="middle" x="183.27" y="-1122.95" font-family="Helvetica,sans-Serif" font-size="12.00"> every tic</text>
</g>
<!-- prod -->
<g id="node3" class="node">
<title>prod</title>
<path fill="#fff7e6" stroke="#444444" stroke-width="1.3" d="M297.92,-987.7C297.92,-987.7 21.38,-987.7 21.38,-987.7 15.38,-987.7 9.38,-981.7 9.38,-975.7 9.38,-975.7 9.38,-913.3 9.38,-913.3 9.38,-907.3 15.38,-901.3 21.38,-901.3 21.38,-901.3 297.92,-901.3 297.92,-901.3 303.92,-901.3 309.92,-907.3 309.92,-913.3 309.92,-913.3 309.92,-975.7 309.92,-975.7 309.92,-981.7 303.92,-987.7 297.92,-987.7"/>
<text xml:space="preserve" text-anchor="middle" x="159.65" y="-966.25" font-family="Helvetica,sans-Serif" font-size="15.00">Downlink products</text>
<text xml:space="preserve" text-anchor="middle" x="159.65" y="-948.25" font-family="Helvetica,sans-Serif" font-size="15.00">STATUS: 112&#45;byte struct, 56 fields, 12 Hz</text>
<text xml:space="preserve" text-anchor="middle" x="159.65" y="-930.25" font-family="Helvetica,sans-Serif" font-size="15.00">JPEG 320x240 q45, ~8 KB, 10 fps</text>
<text xml:space="preserve" text-anchor="middle" x="159.65" y="-912.25" font-family="Helvetica,sans-Serif" font-size="15.00">map PNG every 5 s</text>
</g>
<!-- sense&#45;&gt;prod -->
<g id="edge2" class="edge">
<title>sense&#45;&gt;prod</title>
<path fill="none" stroke="#555555" d="M159.65,-1018.26C159.65,-1011.46 159.65,-1004.36 159.65,-997.38"/>
<polygon fill="#555555" stroke="#555555" points="162.45,-997.48 159.65,-989.48 156.85,-997.48 162.45,-997.48"/>
</g>
<!-- comp -->
<g id="node4" class="node">
<title>comp</title>
<path fill="#dbe8f7" stroke="#444444" stroke-width="1.3" d="M292.29,-857.05C292.29,-857.05 27,-857.05 27,-857.05 21,-857.05 15,-851.05 15,-845.05 15,-845.05 15,-800.65 15,-800.65 15,-794.65 21,-788.65 27,-788.65 27,-788.65 292.29,-788.65 292.29,-788.65 298.29,-788.65 304.29,-794.65 304.29,-800.65 304.29,-800.65 304.29,-845.05 304.29,-845.05 304.29,-851.05 298.29,-857.05 292.29,-857.05"/>
<text xml:space="preserve" text-anchor="middle" x="159.65" y="-835.6" font-family="Helvetica,sans-Serif" font-size="15.00">F´ v4.3 Doom component</text>
<text xml:space="preserve" text-anchor="middle" x="159.65" y="-817.6" font-family="Helvetica,sans-Serif" font-size="15.00">STATUS &#45;&gt; 56 telemetry channels</text>
<text xml:space="preserve" text-anchor="middle" x="159.65" y="-799.6" font-family="Helvetica,sans-Serif" font-size="15.00">images &#45;&gt; FrameChunk records (960 B)</text>
</g>
<!-- prod&#45;&gt;comp -->
<g id="edge3" class="edge">
<title>prod&#45;&gt;comp</title>
<path fill="none" stroke="#555555" d="M159.65,-900.98C159.65,-889.97 159.65,-878.1 159.65,-867.05"/>
<polygon fill="#555555" stroke="#555555" points="162.45,-867.11 159.65,-859.11 156.85,-867.11 162.45,-867.11"/>
<text xml:space="preserve" text-anchor="middle" x="189.65" y="-874.9" font-family="Helvetica,sans-Serif" font-size="12.00"> TCP :4242</text>
</g>
<!-- tm -->
<g id="node5" class="node">
<title>tm</title>
<path fill="#dbe8f7" stroke="#444444" stroke-width="1.3" d="M282.54,-757.65C282.54,-757.65 36.75,-757.65 36.75,-757.65 30.75,-757.65 24.75,-751.65 24.75,-745.65 24.75,-745.65 24.75,-701.25 24.75,-701.25 24.75,-695.25 30.75,-689.25 36.75,-689.25 36.75,-689.25 282.54,-689.25 282.54,-689.25 288.54,-689.25 294.54,-695.25 294.54,-701.25 294.54,-701.25 294.54,-745.65 294.54,-745.65 294.54,-751.65 288.54,-757.65 282.54,-757.65"/>
<text xml:space="preserve" text-anchor="middle" x="159.65" y="-736.2" font-family="Helvetica,sans-Serif" font-size="15.00">F´ ComCcsds</text>
<text xml:space="preserve" text-anchor="middle" x="159.65" y="-718.2" font-family="Helvetica,sans-Serif" font-size="15.00">Space Packets (APID 1 telemetry,</text>
<text xml:space="preserve" text-anchor="middle" x="159.65" y="-700.2" font-family="Helvetica,sans-Serif" font-size="15.00">2 events, 3 file) in 1024 B TM frames</text>
</g>
<!-- comp&#45;&gt;tm -->
<g id="edge4" class="edge">
<title>comp&#45;&gt;tm</title>
<path fill="none" stroke="#555555" d="M159.65,-788.06C159.65,-781.41 159.65,-774.35 159.65,-767.45"/>
<polygon fill="#555555" stroke="#555555" points="162.45,-767.7 159.65,-759.7 156.85,-767.7 162.45,-767.7"/>
</g>
<!-- yamcs -->
<g id="node6" class="node">
<title>yamcs</title>
<path fill="#e2efd9" stroke="#444444" stroke-width="1.3" d="M300.17,-645C300.17,-645 19.12,-645 19.12,-645 13.12,-645 7.12,-639 7.12,-633 7.12,-633 7.12,-552.6 7.12,-552.6 7.12,-546.6 13.12,-540.6 19.12,-540.6 19.12,-540.6 300.17,-540.6 300.17,-540.6 306.17,-540.6 312.17,-546.6 312.17,-552.6 312.17,-552.6 312.17,-633 312.17,-633 312.17,-639 306.17,-645 300.17,-645"/>
<text xml:space="preserve" text-anchor="middle" x="159.65" y="-623.55" font-family="Helvetica,sans-Serif" font-size="15.00">Yamcs 5.12 (fprime&#45;yamcs)</text>
<text xml:space="preserve" text-anchor="middle" x="159.65" y="-605.55" font-family="Helvetica,sans-Serif" font-size="15.00">XTCE from the F´ dictionary:</text>
<text xml:space="preserve" text-anchor="middle" x="159.65" y="-587.55" font-family="Helvetica,sans-Serif" font-size="15.00">156 parameters, 54 commands</text>
<text xml:space="preserve" text-anchor="middle" x="159.65" y="-569.55" font-family="Helvetica,sans-Serif" font-size="15.00">archive, realtime processor,</text>
<text xml:space="preserve" text-anchor="middle" x="159.65" y="-551.55" font-family="Helvetica,sans-Serif" font-size="15.00">WebSocket, HTTP command API, buckets</text>
</g>
<!-- tm&#45;&gt;yamcs -->
<g id="edge5" class="edge">
<title>tm&#45;&gt;yamcs</title>
<path fill="none" stroke="#555555" d="M159.65,-688.65C159.65,-678.19 159.65,-666.34 159.65,-654.63"/>
<polygon fill="#555555" stroke="#555555" points="162.45,-654.82 159.65,-646.82 156.85,-654.82 162.45,-654.82"/>
<text xml:space="preserve" text-anchor="middle" x="192.27" y="-662.85" font-family="Helvetica,sans-Serif" font-size="12.00"> UDP 50000</text>
</g>
<!-- disp -->
<g id="node7" class="node">
<title>disp</title>
<path fill="#e2efd9" stroke="#444444" stroke-width="1.3" d="M243.42,-496.35C243.42,-496.35 47.88,-496.35 47.88,-496.35 41.88,-496.35 35.88,-490.35 35.88,-484.35 35.88,-484.35 35.88,-421.95 35.88,-421.95 35.88,-415.95 41.88,-409.95 47.88,-409.95 47.88,-409.95 243.42,-409.95 243.42,-409.95 249.42,-409.95 255.42,-415.95 255.42,-421.95 255.42,-421.95 255.42,-484.35 255.42,-484.35 255.42,-490.35 249.42,-496.35 243.42,-496.35"/>
<text xml:space="preserve" text-anchor="middle" x="145.65" y="-474.9" font-family="Helvetica,sans-Serif" font-size="15.00">Displays (read Yamcs only)</text>
<text xml:space="preserve" text-anchor="middle" x="145.65" y="-456.9" font-family="Helvetica,sans-Serif" font-size="15.00">Yamcs web, Open MCT</text>
<text xml:space="preserve" text-anchor="middle" x="145.65" y="-438.9" font-family="Helvetica,sans-Serif" font-size="15.00">(plots, DoomFrame imagery),</text>
<text xml:space="preserve" text-anchor="middle" x="145.65" y="-420.9" font-family="Helvetica,sans-Serif" font-size="15.00">mission dashboard</text>
</g>
<!-- yamcs&#45;&gt;disp -->
<g id="edge6" class="edge">
<title>yamcs&#45;&gt;disp</title>
<path fill="none" stroke="#555555" d="M154.39,-540.15C153.25,-528.95 152.05,-517.09 150.91,-505.89"/>
<polygon fill="#555555" stroke="#555555" points="153.72,-505.83 150.12,-498.16 148.14,-506.4 153.72,-505.83"/>
<text xml:space="preserve" text-anchor="middle" x="205.52" y="-514.2" font-family="Helvetica,sans-Serif" font-size="12.00"> WebSocket / HTTP</text>
</g>
<!-- pilot -->
<g id="node8" class="node">
<title>pilot</title>
<path fill="#fff2cc" stroke="#444444" stroke-width="1.3" d="M516.16,-496.35C516.16,-496.35 289.12,-496.35 289.12,-496.35 283.12,-496.35 277.12,-490.35 277.12,-484.35 277.12,-484.35 277.12,-421.95 277.12,-421.95 277.12,-415.95 283.12,-409.95 289.12,-409.95 289.12,-409.95 516.16,-409.95 516.16,-409.95 522.16,-409.95 528.16,-415.95 528.16,-421.95 528.16,-421.95 528.16,-484.35 528.16,-484.35 528.16,-490.35 522.16,-496.35 516.16,-496.35"/>
<text xml:space="preserve" text-anchor="middle" x="402.64" y="-474.9" font-family="Helvetica,sans-Serif" font-size="15.00">Ground pilot (pilot.py)</text>
<text xml:space="preserve" text-anchor="middle" x="402.64" y="-456.9" font-family="Helvetica,sans-Serif" font-size="15.00">56 parameters at 12 Hz,</text>
<text xml:space="preserve" text-anchor="middle" x="402.64" y="-438.9" font-family="Helvetica,sans-Serif" font-size="15.00">FrameChunk reassembly (10 fps),</text>
<text xml:space="preserve" text-anchor="middle" x="402.64" y="-420.9" font-family="Helvetica,sans-Serif" font-size="15.00">numbers &#45;&gt; words</text>
</g>
<!-- yamcs&#45;&gt;pilot -->
<g id="edge7" class="edge">
<title>yamcs&#45;&gt;pilot</title>
<path fill="none" stroke="#555555" d="M251.17,-539.96C273.36,-527.39 296.97,-514.01 318.78,-501.65"/>
<polygon fill="#555555" stroke="#555555" points="320.15,-504.1 325.73,-497.72 317.39,-499.22 320.15,-504.1"/>
<text xml:space="preserve" text-anchor="middle" x="327.94" y="-514.2" font-family="Helvetica,sans-Serif" font-size="12.00"> WebSocket</text>
</g>
<!-- sonnet -->
<g id="node9" class="node">
<title>sonnet</title>
<path fill="#ead1ea" stroke="#444444" stroke-width="1.3" d="M353.67,-365.7C353.67,-365.7 147.62,-365.7 147.62,-365.7 141.62,-365.7 135.62,-359.7 135.62,-353.7 135.62,-353.7 135.62,-273.3 135.62,-273.3 135.62,-267.3 141.62,-261.3 147.62,-261.3 147.62,-261.3 353.67,-261.3 353.67,-261.3 359.67,-261.3 365.67,-267.3 365.67,-273.3 365.67,-273.3 365.67,-353.7 365.67,-353.7 365.67,-359.7 359.67,-365.7 353.67,-365.7"/>
<text xml:space="preserve" text-anchor="middle" x="250.65" y="-344.25" font-family="Helvetica,sans-Serif" font-size="15.00">Claude Sonnet 5 (System Two)</text>
<text xml:space="preserve" text-anchor="middle" x="250.65" y="-326.25" font-family="Helvetica,sans-Serif" font-size="15.00">every 60 s: bearing + hold</text>
<text xml:space="preserve" text-anchor="middle" x="250.65" y="-308.25" font-family="Helvetica,sans-Serif" font-size="15.00">&#45;&gt; EXPLORE_HINT</text>
<text xml:space="preserve" text-anchor="middle" x="250.65" y="-290.25" font-family="Helvetica,sans-Serif" font-size="15.00">per episode: report + graph</text>
<text xml:space="preserve" text-anchor="middle" x="250.65" y="-272.25" font-family="Helvetica,sans-Serif" font-size="15.00">&#45;&gt; revised graph_v&lt;N&gt;.json</text>
</g>
<!-- pilot&#45;&gt;sonnet -->
<g id="edge8" class="edge">
<title>pilot&#45;&gt;sonnet</title>
<path fill="none" stroke="#555555" d="M348.56,-403.17C337.61,-393.25 325.98,-382.73 314.72,-372.53"/>
<polygon fill="#555555" stroke="#555555" points="346.45,-405.04 354.26,-408.34 350.21,-400.89 346.45,-405.04"/>
<polygon fill="#555555" stroke="#555555" points="316.69,-370.54 308.88,-367.24 312.94,-374.69 316.69,-370.54"/>
<text xml:space="preserve" text-anchor="middle" x="353.37" y="-383.55" font-family="Helvetica,sans-Serif" font-size="12.00"> JSON</text>
</g>
<!-- jev -->
<g id="node10" class="node">
<title>jev</title>
<path fill="#ead1ea" stroke="#444444" stroke-width="1.3" d="M653.66,-356.7C653.66,-356.7 399.62,-356.7 399.62,-356.7 393.62,-356.7 387.62,-350.7 387.62,-344.7 387.62,-344.7 387.62,-282.3 387.62,-282.3 387.62,-276.3 393.62,-270.3 399.62,-270.3 399.62,-270.3 653.66,-270.3 653.66,-270.3 659.66,-270.3 665.66,-276.3 665.66,-282.3 665.66,-282.3 665.66,-344.7 665.66,-344.7 665.66,-350.7 659.66,-356.7 653.66,-356.7"/>
<text xml:space="preserve" text-anchor="middle" x="526.64" y="-335.25" font-family="Helvetica,sans-Serif" font-size="15.00">jev (TypeSafe System One)</text>
<text xml:space="preserve" text-anchor="middle" x="526.64" y="-317.25" font-family="Helvetica,sans-Serif" font-size="15.00">POST /v1/systemone: state document</text>
<text xml:space="preserve" text-anchor="middle" x="526.64" y="-299.25" font-family="Helvetica,sans-Serif" font-size="15.00">+ 5&#45;8 typed questions</text>
<text xml:space="preserve" text-anchor="middle" x="526.64" y="-281.25" font-family="Helvetica,sans-Serif" font-size="15.00">Choice + probabilities, Noul; ~450 ms</text>
</g>
<!-- pilot&#45;&gt;jev -->
<g id="edge9" class="edge">
<title>pilot&#45;&gt;jev</title>
<path fill="none" stroke="#555555" d="M431.9,-409.55C439.15,-399.79 447.15,-389.66 455.14,-380.7 460.25,-374.99 465.78,-369.22 471.43,-363.6"/>
<polygon fill="#555555" stroke="#555555" points="473.26,-365.74 477.02,-358.15 469.34,-361.73 473.26,-365.74"/>
<text xml:space="preserve" text-anchor="middle" x="496.39" y="-383.55" font-family="Helvetica,sans-Serif" font-size="12.00"> HTTPS, ~3 KB</text>
</g>
<!-- log -->
<g id="node11" class="node">
<title>log</title>
<path fill="#fff2cc" stroke="#444444" stroke-width="1.3" d="M492.41,-217.05C492.41,-217.05 296.88,-217.05 296.88,-217.05 290.88,-217.05 284.88,-211.05 284.88,-205.05 284.88,-205.05 284.88,-142.65 284.88,-142.65 284.88,-136.65 290.88,-130.65 296.88,-130.65 296.88,-130.65 492.41,-130.65 492.41,-130.65 498.41,-130.65 504.41,-136.65 504.41,-142.65 504.41,-142.65 504.41,-205.05 504.41,-205.05 504.41,-211.05 498.41,-217.05 492.41,-217.05"/>
<text xml:space="preserve" text-anchor="middle" x="394.64" y="-195.6" font-family="Helvetica,sans-Serif" font-size="15.00">Decision log</text>
<text xml:space="preserve" text-anchor="middle" x="394.64" y="-177.6" font-family="Helvetica,sans-Serif" font-size="15.00">runs/&lt;date&gt;/decisions.jsonl</text>
<text xml:space="preserve" text-anchor="middle" x="394.64" y="-159.6" font-family="Helvetica,sans-Serif" font-size="15.00">words, answers, probabilities,</text>
<text xml:space="preserve" text-anchor="middle" x="394.64" y="-141.6" font-family="Helvetica,sans-Serif" font-size="15.00">request id, latency, telemetry</text>
</g>
<!-- jev&#45;&gt;log -->
<g id="edge10" class="edge">
<title>jev&#45;&gt;log</title>
<path fill="none" stroke="#555555" d="M485.6,-269.7C471.82,-255.33 456.34,-239.18 442.1,-224.34"/>
<polygon fill="#555555" stroke="#555555" points="444.27,-222.55 436.71,-218.71 440.23,-226.43 444.27,-222.55"/>
</g>
<!-- rules -->
<g id="node12" class="node">
<title>rules</title>
<path fill="#fff2cc" stroke="#444444" stroke-width="1.3" d="M790.91,-208.05C790.91,-208.05 538.38,-208.05 538.38,-208.05 532.38,-208.05 526.38,-202.05 526.38,-196.05 526.38,-196.05 526.38,-151.65 526.38,-151.65 526.38,-145.65 532.38,-139.65 538.38,-139.65 538.38,-139.65 790.91,-139.65 790.91,-139.65 796.91,-139.65 802.91,-145.65 802.91,-151.65 802.91,-151.65 802.91,-196.05 802.91,-196.05 802.91,-202.05 796.91,-208.05 790.91,-208.05"/>
<text xml:space="preserve" text-anchor="middle" x="664.64" y="-186.6" font-family="Helvetica,sans-Serif" font-size="15.00">control_args(): answers &#45;&gt; CONTROL</text>
<text xml:space="preserve" text-anchor="middle" x="664.64" y="-168.6" font-family="Helvetica,sans-Serif" font-size="15.00">hysteresis on the probabilities,</text>
<text xml:space="preserve" text-anchor="middle" x="664.64" y="-150.6" font-family="Helvetica,sans-Serif" font-size="15.00">aim override, big turns finish first</text>
</g>
<!-- jev&#45;&gt;rules -->
<g id="edge11" class="edge">
<title>jev&#45;&gt;rules</title>
<path fill="none" stroke="#555555" d="M558.8,-269.67C569.01,-257.06 580.7,-243.57 592.39,-232.05 598.42,-226.12 605.04,-220.19 611.75,-214.53"/>
<polygon fill="#555555" stroke="#555555" points="613.5,-216.72 617.88,-209.46 609.93,-212.4 613.5,-216.72"/>
<text xml:space="preserve" text-anchor="middle" x="626.52" y="-234.9" font-family="Helvetica,sans-Serif" font-size="12.00"> probabilities</text>
</g>
<!-- tc -->
<g id="node13" class="node">
<title>tc</title>
<path fill="#dbe8f7" stroke="#444444" stroke-width="1.3" d="M801.79,-86.4C801.79,-86.4 527.5,-86.4 527.5,-86.4 521.5,-86.4 515.5,-80.4 515.5,-74.4 515.5,-74.4 515.5,-12 515.5,-12 515.5,-6 521.5,0 527.5,0 527.5,0 801.79,0 801.79,0 807.79,0 813.79,-6 813.79,-12 813.79,-12 813.79,-74.4 813.79,-74.4 813.79,-80.4 807.79,-86.4 801.79,-86.4"/>
<text xml:space="preserve" text-anchor="middle" x="664.64" y="-64.95" font-family="Helvetica,sans-Serif" font-size="15.00">Uplink: F´ commands (opcodes 0&#45;4)</text>
<text xml:space="preserve" text-anchor="middle" x="664.64" y="-46.95" font-family="Helvetica,sans-Serif" font-size="15.00">CONTROL, SET_GOAL, RESET_GAME,</text>
<text xml:space="preserve" text-anchor="middle" x="664.64" y="-28.95" font-family="Helvetica,sans-Serif" font-size="15.00">FRAME_RATE, EXPLORE_HINT</text>
<text xml:space="preserve" text-anchor="middle" x="664.64" y="-10.95" font-family="Helvetica,sans-Serif" font-size="15.00">CCSDS TC, UDP 50001, ~45 ms to issue</text>
</g>
<!-- rules&#45;&gt;tc -->
<g id="edge12" class="edge">
<title>rules&#45;&gt;tc</title>
<path fill="none" stroke="#555555" d="M664.64,-139.05C664.64,-125.98 664.64,-110.72 664.64,-96.31"/>
<polygon fill="#555555" stroke="#555555" points="667.45,-96.51 664.65,-88.51 661.85,-96.51 667.45,-96.51"/>
<text xml:space="preserve" text-anchor="middle" x="710.77" y="-104.25" font-family="Helvetica,sans-Serif" font-size="12.00"> via Yamcs HTTP</text>
</g>
<!-- tc&#45;&gt;comp -->
<g id="edge13" class="edge">
<title>tc&#45;&gt;comp</title>
<path fill="none" stroke="#3a7bc0" d="M770.9,-86.82C788,-98.46 803.42,-112.9 813.64,-130.65 832.81,-163.93 827.61,-181.28 813.64,-217.05 693.71,-524.16 575.21,-567.81 305.64,-757.65 291.57,-767.56 275.72,-776.44 259.79,-784.21"/>
<polygon fill="#3a7bc0" stroke="#3a7bc0" points="258.85,-781.56 252.83,-787.53 261.26,-786.62 258.85,-781.56"/>
<text xml:space="preserve" text-anchor="middle" x="760.83" y="-456" font-family="Helvetica,sans-Serif" font-size="12.00"> CmdDispatcher</text>
<text xml:space="preserve" text-anchor="middle" x="760.83" y="-441.75" font-family="Helvetica,sans-Serif" font-size="12.00"> &#45;&gt; payload</text>
</g>
</g>
</svg>
