<?xml version="1.0" encoding="UTF-8" standalone="no"?>
<!DOCTYPE svg PUBLIC "-//W3C//DTD SVG 1.1//EN"
 "http://www.w3.org/Graphics/SVG/1.1/DTD/svg11.dtd">
<!-- Generated by graphviz version 2.43.0 (0)
 -->
<!-- Title: F Pages: 1 -->
<svg width="751pt" height="847pt"
 viewBox="0.00 0.00 750.60 846.60" xmlns="http://www.w3.org/2000/svg" xmlns:xlink="http://www.w3.org/1999/xlink">
<g id="graph0" class="graph" transform="scale(1 1) rotate(0) translate(28.8 817.8)">
<title>F</title>
<polygon fill="#0f1116" stroke="transparent" points="-28.8,28.8 -28.8,-817.8 721.8,-817.8 721.8,28.8 -28.8,28.8"/>
<text text-anchor="start" x="8" y="-773.8" font-family="DejaVu Sans Mono" font-size="14.00" fill="#d8dde6">DOOMSAT . ONE DECISION END TO END (episode 7, graph v14, 22 Sep 2026 10:41:59 UTC)</text>
<!-- n -->
<g id="node1" class="node">
<title>n</title>
<path fill="#161a22" stroke="#4a5160" stroke-width="1.4" d="M441.25,-766C441.25,-766 18.25,-766 18.25,-766 12.25,-766 6.25,-760 6.25,-754 6.25,-754 6.25,-652 6.25,-652 6.25,-646 12.25,-640 18.25,-640 18.25,-640 441.25,-640 441.25,-640 447.25,-640 453.25,-646 453.25,-652 453.25,-652 453.25,-754 453.25,-754 453.25,-760 447.25,-766 441.25,-766"/>
<text text-anchor="start" x="20.25" y="-748.2" font-family="DejaVu Sans Mono" font-size="11.00" fill="#d8dde6">Yamcs parameters (12 Hz), this tick:</text>
<text text-anchor="start" x="20.25" y="-736.2" font-family="DejaVu Sans Mono" font-size="11.00" fill="#d8dde6">CLEAR ahead 116 &#160;ahead&#45;left 48 &#160;left 28 &#160;behind&#45;left 20</text>
<text text-anchor="start" x="20.25" y="-724.2" font-family="DejaVu Sans Mono" font-size="11.00" fill="#d8dde6">behind 24 &#160;behind&#45;right 248 &#160;right 212 &#160;ahead&#45;right 120</text>
<text text-anchor="start" x="20.25" y="-712.2" font-family="DejaVu Sans Mono" font-size="11.00" fill="#d8dde6">(units)</text>
<text text-anchor="start" x="20.25" y="-700.2" font-family="DejaVu Sans Mono" font-size="11.00" fill="#d8dde6">NEW ahead 0 &#160;ahead&#45;left 100 &#160;left 0 &#160;behind&#45;left 0 &#160;behind 0</text>
<text text-anchor="start" x="20.25" y="-688.2" font-family="DejaVu Sans Mono" font-size="11.00" fill="#d8dde6">behind&#45;right 14 &#160;right 50 &#160;ahead&#45;right 33</text>
<text text-anchor="start" x="20.25" y="-676.2" font-family="DejaVu Sans Mono" font-size="11.00" fill="#d8dde6">AHEAD_KIND NOTHING &#160;EXIT_DIST 0 &#160;STUCK false &#160;ENEMY_COUNT 0</text>
<text text-anchor="start" x="20.25" y="-664.2" font-family="DejaVu Sans Mono" font-size="11.00" fill="#d8dde6">HEALTH 100 &#160;ARMOR 0 &#160;KILLS 0</text>
<text text-anchor="start" x="20.25" y="-652.2" font-family="DejaVu Sans Mono" font-size="11.00" fill="#d8dde6">POS 1347,&#45;2725 &#160;ANGLE 216 &#160;EXPLORED_CELLS 544 &#160;LEVEL 1 &#160;KEYS 0</text>
</g>
<!-- w -->
<g id="node2" class="node">
<title>w</title>
<path fill="#161a22" stroke="#4a5160" stroke-width="1.4" d="M410.75,-603C410.75,-603 48.75,-603 48.75,-603 42.75,-603 36.75,-597 36.75,-591 36.75,-591 36.75,-465 36.75,-465 36.75,-459 42.75,-453 48.75,-453 48.75,-453 410.75,-453 410.75,-453 416.75,-453 422.75,-459 422.75,-465 422.75,-465 422.75,-591 422.75,-591 422.75,-597 416.75,-603 410.75,-603"/>
<text text-anchor="start" x="50.75" y="-585.2" font-family="DejaVu Sans Mono" font-size="11.00" fill="#d8dde6">state document (code, no model):</text>
<text text-anchor="start" x="50.75" y="-573.2" font-family="DejaVu Sans Mono" font-size="11.00" fill="#d8dde6">ahead: open, walked before, nothing near</text>
<text text-anchor="start" x="50.75" y="-561.2" font-family="DejaVu Sans Mono" font-size="11.00" fill="#d8dde6">ahead&#45;left: tight, new</text>
<text text-anchor="start" x="50.75" y="-549.2" font-family="DejaVu Sans Mono" font-size="11.00" fill="#d8dde6">left / behind&#45;left / behind: blocked, walked before</text>
<text text-anchor="start" x="50.75" y="-537.2" font-family="DejaVu Sans Mono" font-size="11.00" fill="#d8dde6">behind&#45;right: long (a passage or a big room), walked</text>
<text text-anchor="start" x="50.75" y="-525.2" font-family="DejaVu Sans Mono" font-size="11.00" fill="#d8dde6">before</text>
<text text-anchor="start" x="50.75" y="-513.2" font-family="DejaVu Sans Mono" font-size="11.00" fill="#d8dde6">right: open, partly walked</text>
<text text-anchor="start" x="50.75" y="-501.2" font-family="DejaVu Sans Mono" font-size="11.00" fill="#d8dde6">ahead&#45;right: open, partly walked</text>
<text text-anchor="start" x="50.75" y="-489.2" font-family="DejaVu Sans Mono" font-size="11.00" fill="#d8dde6">exit: not seen . enemy: none in view . health: full .</text>
<text text-anchor="start" x="50.75" y="-477.2" font-family="DejaVu Sans Mono" font-size="11.00" fill="#d8dde6">armor: none</text>
<text text-anchor="start" x="50.75" y="-465.2" font-family="DejaVu Sans Mono" font-size="11.00" fill="#d8dde6">goal word: Explore</text>
</g>
<!-- n&#45;&gt;w -->
<g id="edge1" class="edge">
<title>n&#45;&gt;w</title>
<path fill="none" stroke="#8b93a1" stroke-width="1.2" d="M229.75,-639.54C229.75,-630.96 229.75,-622.04 229.75,-613.15"/>
<polygon fill="#8b93a1" stroke="#8b93a1" stroke-width="1.2" points="233.25,-613.15 229.75,-603.15 226.25,-613.15 233.25,-613.15"/>
<text text-anchor="middle" x="458.25" y="-619" font-family="DejaVu Sans Mono" font-size="10.00" fill="#8b93a1"> telemetry &#45;&gt; words (bands, novelty, direction names); no number reaches jev</text>
</g>
<!-- j -->
<g id="node3" class="node">
<title>j</title>
<path fill="#161a22" stroke="#d9a441" stroke-width="1.4" d="M441.25,-416C441.25,-416 18.25,-416 18.25,-416 12.25,-416 6.25,-410 6.25,-404 6.25,-404 6.25,-302 6.25,-302 6.25,-296 12.25,-290 18.25,-290 18.25,-290 441.25,-290 441.25,-290 447.25,-290 453.25,-296 453.25,-302 453.25,-302 453.25,-404 453.25,-404 453.25,-410 447.25,-416 441.25,-416"/>
<text text-anchor="start" x="20.25" y="-398.2" font-family="DejaVu Sans Mono" font-size="11.00" fill="#d8dde6">jev, one request, 469 ms,</text>
<text text-anchor="start" x="20.25" y="-386.2" font-family="DejaVu Sans Mono" font-size="11.00" fill="#d8dde6">req_01a0c8b54b2c73dd8ec79b57a6f3a1b6:</text>
<text text-anchor="start" x="20.25" y="-374.2" font-family="DejaVu Sans Mono" font-size="11.00" fill="#d8dde6">way (Choice over the 5 open directions) &#45;&gt; ahead&#45;left 0.82 .</text>
<text text-anchor="start" x="20.25" y="-362.2" font-family="DejaVu Sans Mono" font-size="11.00" fill="#d8dde6">ahead 0.14 . right 0.03 . ahead&#45;right 0.01 . behind&#45;right 0.00</text>
<text text-anchor="start" x="20.25" y="-350.2" font-family="DejaVu Sans Mono" font-size="11.00" fill="#d8dde6">advance (Noul) &#45;&gt; yes 0.75</text>
<text text-anchor="start" x="20.25" y="-338.2" font-family="DejaVu Sans Mono" font-size="11.00" fill="#d8dde6">fire (Noul) &#45;&gt; no 0.98</text>
<text text-anchor="start" x="20.25" y="-326.2" font-family="DejaVu Sans Mono" font-size="11.00" fill="#d8dde6">weapon (Choice) &#45;&gt; Keep 0.82 . Shotgun 0.18 . Pistol 0.00</text>
<text text-anchor="start" x="20.25" y="-314.2" font-family="DejaVu Sans Mono" font-size="11.00" fill="#d8dde6">goal (Choice, this was a goal tick) &#45;&gt; Add armor 0.86 .</text>
<text text-anchor="start" x="20.25" y="-302.2" font-family="DejaVu Sans Mono" font-size="11.00" fill="#d8dde6">Explore 0.14</text>
</g>
<!-- w&#45;&gt;j -->
<g id="edge2" class="edge">
<title>w&#45;&gt;j</title>
<path fill="none" stroke="#8b93a1" stroke-width="1.2" d="M229.75,-452.88C229.75,-444.05 229.75,-435.04 229.75,-426.23"/>
<polygon fill="#8b93a1" stroke="#8b93a1" stroke-width="1.2" points="233.25,-426.01 229.75,-416.01 226.25,-426.01 233.25,-426.01"/>
<text text-anchor="middle" x="428.25" y="-432" font-family="DejaVu Sans Mono" font-size="10.00" fill="#8b93a1"> HTTPS POST /v1/systemone: state + 5 typed questions with criteria</text>
</g>
<!-- r -->
<g id="node4" class="node">
<title>r</title>
<path fill="#161a22" stroke="#3fae6a" stroke-width="1.4" d="M437.75,-253C437.75,-253 21.75,-253 21.75,-253 15.75,-253 9.75,-247 9.75,-241 9.75,-241 9.75,-127 9.75,-127 9.75,-121 15.75,-115 21.75,-115 21.75,-115 437.75,-115 437.75,-115 443.75,-115 449.75,-121 449.75,-127 449.75,-127 449.75,-241 449.75,-241 449.75,-247 443.75,-253 437.75,-253"/>
<text text-anchor="start" x="23.75" y="-235.2" font-family="DejaVu Sans Mono" font-size="11.00" fill="#d8dde6">code rules:</text>
<text text-anchor="start" x="23.75" y="-223.2" font-family="DejaVu Sans Mono" font-size="11.00" fill="#d8dde6">way: previous way &#39;ahead&#39; held 0.14, new 0.82 &gt;= 0.14 +</text>
<text text-anchor="start" x="23.75" y="-211.2" font-family="DejaVu Sans Mono" font-size="11.00" fill="#d8dde6">way_margin &#45;&gt; switch; ahead&#45;left = +45 deg</text>
<text text-anchor="start" x="23.75" y="-199.2" font-family="DejaVu Sans Mono" font-size="11.00" fill="#d8dde6">a turn of 45 deg or more is issued alone: move = 0 this tick,</text>
<text text-anchor="start" x="23.75" y="-187.2" font-family="DejaVu Sans Mono" font-size="11.00" fill="#d8dde6">walking resumes when the turn has landed</text>
<text text-anchor="start" x="23.75" y="-175.2" font-family="DejaVu Sans Mono" font-size="11.00" fill="#d8dde6">fire 0.98 no &#45;&gt; fire = 0; use not asked (nothing at arm&#39;s</text>
<text text-anchor="start" x="23.75" y="-163.2" font-family="DejaVu Sans Mono" font-size="11.00" fill="#d8dde6">length) &#45;&gt; use = 0</text>
<text text-anchor="start" x="23.75" y="-151.2" font-family="DejaVu Sans Mono" font-size="11.00" fill="#d8dde6">weapon Keep &#45;&gt; no switch</text>
<text text-anchor="start" x="23.75" y="-139.2" font-family="DejaVu Sans Mono" font-size="11.00" fill="#d8dde6">goal Add armor &#45;&gt; SET_GOAL(ADD_ARMOR) on the goal tick; the</text>
<text text-anchor="start" x="23.75" y="-127.2" font-family="DejaVu Sans Mono" font-size="11.00" fill="#d8dde6">word &#39;Add armor&#39; enters the next documents</text>
</g>
<!-- j&#45;&gt;r -->
<g id="edge3" class="edge">
<title>j&#45;&gt;r</title>
<path fill="none" stroke="#8b93a1" stroke-width="1.2" d="M229.75,-289.82C229.75,-281.12 229.75,-272.1 229.75,-263.16"/>
<polygon fill="#8b93a1" stroke="#8b93a1" stroke-width="1.2" points="233.25,-263.12 229.75,-253.12 226.25,-263.12 233.25,-263.12"/>
<text text-anchor="middle" x="371.25" y="-269" font-family="DejaVu Sans Mono" font-size="10.00" fill="#8b93a1"> choices with probabilities, Noul probabilities</text>
</g>
<!-- c -->
<g id="node5" class="node">
<title>c</title>
<path fill="#161a22" stroke="#4f8fd6" stroke-width="1.4" d="M437.75,-78C437.75,-78 21.75,-78 21.75,-78 15.75,-78 9.75,-72 9.75,-66 9.75,-66 9.75,-12 9.75,-12 9.75,-6 15.75,0 21.75,0 21.75,0 437.75,0 437.75,0 443.75,0 449.75,-6 449.75,-12 449.75,-12 449.75,-66 449.75,-66 449.75,-72 443.75,-78 437.75,-78"/>
<text text-anchor="start" x="23.75" y="-60.2" font-family="DejaVu Sans Mono" font-size="11.00" fill="#d8dde6">CONTROL(move=0, strafe=0, turn=+45, fire=0, use=0, weapon=no</text>
<text text-anchor="start" x="23.75" y="-48.2" font-family="DejaVu Sans Mono" font-size="11.00" fill="#d8dde6">change)</text>
<text text-anchor="start" x="23.75" y="-36.2" font-family="DejaVu Sans Mono" font-size="11.00" fill="#d8dde6">Yamcs HTTP &#45;&gt; CCSDS TC &#45;&gt; UDP &#45;&gt; F´ CmdDispatcher &#45;&gt; Doom</text>
<text text-anchor="start" x="23.75" y="-24.2" font-family="DejaVu Sans Mono" font-size="11.00" fill="#d8dde6">component &#45;&gt; payload turn setpoint (6 deg per tic)</text>
<text text-anchor="start" x="23.75" y="-12.2" font-family="DejaVu Sans Mono" font-size="11.00" fill="#d8dde6">issued in 50 ms; F´ events: OpCodeDispatched, OpCodeCompleted</text>
</g>
<!-- r&#45;&gt;c -->
<g id="edge4" class="edge">
<title>r&#45;&gt;c</title>
<path fill="none" stroke="#8b93a1" stroke-width="1.2" d="M229.75,-114.85C229.75,-105.85 229.75,-96.78 229.75,-88.21"/>
<polygon fill="#8b93a1" stroke="#8b93a1" stroke-width="1.2" points="233.25,-88.04 229.75,-78.04 226.25,-88.04 233.25,-88.04"/>
<text text-anchor="middle" x="305.25" y="-94" font-family="DejaVu Sans Mono" font-size="10.00" fill="#8b93a1"> one command per decision</text>
</g>
</g>
</svg>
