<?xml version="1.0" encoding="UTF-8" standalone="no"?>
<!DOCTYPE svg PUBLIC "-//W3C//DTD SVG 1.1//EN"
 "http://www.w3.org/Graphics/SVG/1.1/DTD/svg11.dtd">
<!-- Generated by graphviz version 16.1.0 (20260904.0139)
 -->
<!-- Title: F Pages: 1 -->
<svg width="1138pt" height="1382pt"
 viewBox="0.00 0.00 1138.00 1382.00" xmlns="http://www.w3.org/2000/svg" xmlns:xlink="http://www.w3.org/1999/xlink">
<g id="graph0" class="graph" transform="scale(1.33333 1.33333) rotate(0) translate(28.8 1007.95)">
<title>F</title>
<polygon fill="#0f1116" stroke="none" points="-28.8,28.8 -28.8,-1007.95 824.8,-1007.95 824.8,28.8 -28.8,28.8"/>
<text xml:space="preserve" text-anchor="start" x="8" y="-961.85" font-family="DejaVu Sans Mono" font-size="14.00" fill="#d8dde6">DOOMSAT . ONE DECISION END TO END . the tic the exit appeared, on the flight that finished E1M1 (jev&#45;1.13.0, 24 Sep 2026)</text>
<!-- b0 -->
<g id="node1" class="node">
<title>b0</title>
<path fill="#161a22" stroke="#4a5160" stroke-width="1.4" d="M433.85,-953.9C433.85,-953.9 117.05,-953.9 117.05,-953.9 111.05,-953.9 105.05,-947.9 105.05,-941.9 105.05,-941.9 105.05,-791.87 105.05,-791.87 105.05,-785.87 111.05,-779.87 117.05,-779.87 117.05,-779.87 433.85,-779.87 433.85,-779.87 439.85,-779.87 445.85,-785.87 445.85,-791.87 445.85,-791.87 445.85,-941.9 445.85,-941.9 445.85,-947.9 439.85,-953.9 433.85,-953.9"/>
<text xml:space="preserve" text-anchor="start" x="119.45" y="-934.81" font-family="DejaVu Sans Mono" font-size="11.00" fill="#d8dde6">Payload telemetry through F Prime, CCSDS and Yamcs &#45;&#45; tic</text>
<text xml:space="preserve" text-anchor="start" x="119.45" y="-920.56" font-family="DejaVu Sans Mono" font-size="11.00" fill="#d8dde6">3244, 92.7 s into the level</text>
<text xml:space="preserve" text-anchor="start" x="119.45" y="-906.31" font-family="DejaVu Sans Mono" font-size="11.00" fill="#d8dde6">health 33, armor 0, shotgun loaded; one Zombieman in view at</text>
<text xml:space="preserve" text-anchor="start" x="119.45" y="-892.06" font-family="DejaVu Sans Mono" font-size="11.00" fill="#d8dde6">mid&#45;range</text>
<text xml:space="preserve" text-anchor="start" x="119.45" y="-877.81" font-family="DejaVu Sans Mono" font-size="11.00" fill="#d8dde6">eight candidate places, each with a world position, a path</text>
<text xml:space="preserve" text-anchor="start" x="119.45" y="-863.56" font-family="DejaVu Sans Mono" font-size="11.00" fill="#d8dde6">distance, how much unseen ground lies behind it, how wide the</text>
<text xml:space="preserve" text-anchor="start" x="119.45" y="-849.31" font-family="DejaVu Sans Mono" font-size="11.00" fill="#d8dde6">way on is and what is standing near it</text>
<text xml:space="preserve" text-anchor="start" x="119.45" y="-835.06" font-family="DejaVu Sans Mono" font-size="11.00" fill="#d8dde6">one of them is the level exit: the automap drew that line 166</text>
<text xml:space="preserve" text-anchor="start" x="119.45" y="-820.81" font-family="DejaVu Sans Mono" font-size="11.00" fill="#d8dde6">units away, the first time this attempt has seen it</text>
<text xml:space="preserve" text-anchor="start" x="119.45" y="-806.56" font-family="DejaVu Sans Mono" font-size="11.00" fill="#d8dde6">the position and the distances are for CODE to aim and plan</text>
<text xml:space="preserve" text-anchor="start" x="119.45" y="-792.31" font-family="DejaVu Sans Mono" font-size="11.00" fill="#d8dde6">with; none of them reach the model</text>
</g>
<!-- b1 -->
<g id="node2" class="node">
<title>b1</title>
<path fill="#161a22" stroke="#4a5160" stroke-width="1.4" d="M427.1,-741.12C427.1,-741.12 123.8,-741.12 123.8,-741.12 117.8,-741.12 111.8,-735.12 111.8,-729.12 111.8,-729.12 111.8,-579.09 111.8,-579.09 111.8,-573.09 117.8,-567.09 123.8,-567.09 123.8,-567.09 427.1,-567.09 427.1,-567.09 433.1,-567.09 439.1,-573.09 439.1,-579.09 439.1,-579.09 439.1,-729.12 439.1,-729.12 439.1,-735.12 433.1,-741.12 427.1,-741.12"/>
<text xml:space="preserve" text-anchor="start" x="126.2" y="-722.03" font-family="DejaVu Sans Mono" font-size="11.00" fill="#d8dde6">State document (code, no model)</text>
<text xml:space="preserve" text-anchor="start" x="126.2" y="-707.78" font-family="DejaVu Sans Mono" font-size="11.00" fill="#d8dde6">here: mode explore, health critical, armor none, ammunition</text>
<text xml:space="preserve" text-anchor="start" x="126.2" y="-693.53" font-family="DejaVu Sans Mono" font-size="11.00" fill="#d8dde6">ready, keys none, stuck no</text>
<text xml:space="preserve" text-anchor="start" x="126.2" y="-679.28" font-family="DejaVu Sans Mono" font-size="11.00" fill="#d8dde6">needs: health urgent, ammo none, armor wanted</text>
<text xml:space="preserve" text-anchor="start" x="126.2" y="-665.03" font-family="DejaVu Sans Mono" font-size="11.00" fill="#d8dde6">combat: a straggler, Zombieman, one, mid&#45;range</text>
<text xml:space="preserve" text-anchor="start" x="126.2" y="-650.78" font-family="DejaVu Sans Mono" font-size="11.00" fill="#d8dde6">t0 &#45;&#45; what the level exit, how_far close, relative_distance</text>
<text xml:space="preserve" text-anchor="start" x="126.2" y="-636.53" font-family="DejaVu Sans Mono" font-size="11.00" fill="#d8dde6">nearer than most, direction behind&#45;left,</text>
<text xml:space="preserve" text-anchor="start" x="126.2" y="-622.28" font-family="DejaVu Sans Mono" font-size="11.00" fill="#d8dde6">unseen_ground_behind_it none, tried_before no, threat none</text>
<text xml:space="preserve" text-anchor="start" x="126.2" y="-608.03" font-family="DejaVu Sans Mono" font-size="11.00" fill="#d8dde6">t3 &#45;&#45; what unexplored edge, the_way_on_is a doorway,</text>
<text xml:space="preserve" text-anchor="start" x="126.2" y="-593.78" font-family="DejaVu Sans Mono" font-size="11.00" fill="#d8dde6">unknown_runs a fair way, gate none, further_from_the_start</text>
<text xml:space="preserve" text-anchor="start" x="126.2" y="-579.53" font-family="DejaVu Sans Mono" font-size="11.00" fill="#d8dde6">about as far out, threat none</text>
</g>
<!-- b0&#45;&gt;b1 -->
<g id="edge1" class="edge">
<title>b0&#45;&gt;b1</title>
<path fill="none" stroke="#8b93a1" stroke-width="1.2" d="M275.45,-779.24C275.45,-770.73 275.45,-762.05 275.45,-753.44"/>
<polygon fill="#8b93a1" stroke="#8b93a1" stroke-width="1.2" points="278.95,-753.57 275.45,-743.57 271.95,-753.57 278.95,-753.57"/>
<text xml:space="preserve" text-anchor="middle" x="492.95" y="-757.37" font-family="DejaVu Sans Mono" font-size="10.00" fill="#8b93a1"> telemetry &#45;&gt; words: bands, comparisons and categories, one vocabulary. No coordinate, no number</text>
</g>
<!-- b2 -->
<g id="node3" class="node">
<title>b2</title>
<path fill="#161a22" stroke="#d9a441" stroke-width="1.4" d="M436.1,-528.34C436.1,-528.34 114.8,-528.34 114.8,-528.34 108.8,-528.34 102.8,-522.34 102.8,-516.34 102.8,-516.34 102.8,-409.06 102.8,-409.06 102.8,-403.06 108.8,-397.06 114.8,-397.06 114.8,-397.06 436.1,-397.06 436.1,-397.06 442.1,-397.06 448.1,-403.06 448.1,-409.06 448.1,-409.06 448.1,-516.34 448.1,-516.34 448.1,-522.34 442.1,-528.34 436.1,-528.34"/>
<text xml:space="preserve" text-anchor="start" x="117.2" y="-509.25" font-family="DejaVu Sans Mono" font-size="11.00" fill="#d8dde6">jev&#45;1.13.0, one request, 354 ms, 5,232 input tokens</text>
<text xml:space="preserve" text-anchor="start" x="117.2" y="-495" font-family="DejaVu Sans Mono" font-size="11.00" fill="#d8dde6">(req_01a0cdc29a2674a9abccb11b0b42b85d)</text>
<text xml:space="preserve" text-anchor="start" x="117.2" y="-480.75" font-family="DejaVu Sans Mono" font-size="11.00" fill="#d8dde6">target &#160;t0 7.02 (the exit, confidence 0.56) &#160;t3 5.60 &#160;t1 5.49</text>
<text xml:space="preserve" text-anchor="start" x="117.2" y="-466.5" font-family="DejaVu Sans Mono" font-size="11.00" fill="#d8dde6">t2 5.34 &#160;t7 4.89 &#160;t5 4.64 &#160;t6 3.74 &#160;t4 1.03</text>
<text xml:space="preserve" text-anchor="start" x="117.2" y="-452.25" font-family="DejaVu Sans Mono" font-size="11.00" fill="#d8dde6">engage &#160;Retreat (confidence 0.82)</text>
<text xml:space="preserve" text-anchor="start" x="117.2" y="-438" font-family="DejaVu Sans Mono" font-size="11.00" fill="#d8dde6">weapon &#160;Shotgun (confidence 0.81)</text>
<text xml:space="preserve" text-anchor="start" x="117.2" y="-423.75" font-family="DejaVu Sans Mono" font-size="11.00" fill="#d8dde6">the need head is asked every goal_every decisions, and was not</text>
<text xml:space="preserve" text-anchor="start" x="117.2" y="-409.5" font-family="DejaVu Sans Mono" font-size="11.00" fill="#d8dde6">asked on this one</text>
</g>
<!-- b1&#45;&gt;b2 -->
<g id="edge2" class="edge">
<title>b1&#45;&gt;b2</title>
<path fill="none" stroke="#8b93a1" stroke-width="1.2" d="M275.45,-566.44C275.45,-557.73 275.45,-548.94 275.45,-540.35"/>
<polygon fill="#8b93a1" stroke="#8b93a1" stroke-width="1.2" points="278.95,-540.6 275.45,-530.6 271.95,-540.6 278.95,-540.6"/>
<text xml:space="preserve" text-anchor="middle" x="462.95" y="-544.59" font-family="DejaVu Sans Mono" font-size="10.00" fill="#8b93a1"> HTTPS POST /v1/systemone: one call, eight target questions plus engage plus weapon</text>
</g>
<!-- b3 -->
<g id="node4" class="node">
<title>b3</title>
<path fill="#161a22" stroke="#3fae6a" stroke-width="1.4" d="M442.85,-358.31C442.85,-358.31 108.05,-358.31 108.05,-358.31 102.05,-358.31 96.05,-352.31 96.05,-346.31 96.05,-346.31 96.05,-210.53 96.05,-210.53 96.05,-204.53 102.05,-198.53 108.05,-198.53 108.05,-198.53 442.85,-198.53 442.85,-198.53 448.85,-198.53 454.85,-204.53 454.85,-210.53 454.85,-210.53 454.85,-346.31 454.85,-346.31 454.85,-352.31 448.85,-358.31 442.85,-358.31"/>
<text xml:space="preserve" text-anchor="start" x="110.45" y="-339.22" font-family="DejaVu Sans Mono" font-size="11.00" fill="#d8dde6">Code rules</text>
<text xml:space="preserve" text-anchor="start" x="110.45" y="-324.97" font-family="DejaVu Sans Mono" font-size="11.00" fill="#d8dde6">top two 7.02 against 5.60: a gap of 1.42 rubric levels, well</text>
<text xml:space="preserve" text-anchor="start" x="110.45" y="-310.72" font-family="DejaVu Sans Mono" font-size="11.00" fill="#d8dde6">clear of unsure_gap, so jev&#39;s ranking stands and the exit is</text>
<text xml:space="preserve" text-anchor="start" x="110.45" y="-296.47" font-family="DejaVu Sans Mono" font-size="11.00" fill="#d8dde6">the target</text>
<text xml:space="preserve" text-anchor="start" x="110.45" y="-282.22" font-family="DejaVu Sans Mono" font-size="11.00" fill="#d8dde6">commitment: the margin to beat is 1.2 levels and nothing beats</text>
<text xml:space="preserve" text-anchor="start" x="110.45" y="-267.97" font-family="DejaVu Sans Mono" font-size="11.00" fill="#d8dde6">the exit, so it is committed to</text>
<text xml:space="preserve" text-anchor="start" x="110.45" y="-253.72" font-family="DejaVu Sans Mono" font-size="11.00" fill="#d8dde6">engage Retreat &#45;&gt; mode RETREAT, stance retreat: back away from</text>
<text xml:space="preserve" text-anchor="start" x="110.45" y="-239.47" font-family="DejaVu Sans Mono" font-size="11.00" fill="#d8dde6">the Zombieman while going for it</text>
<text xml:space="preserve" text-anchor="start" x="110.45" y="-225.22" font-family="DejaVu Sans Mono" font-size="11.00" fill="#d8dde6">use_at_target is set, because the thing being walked to is</text>
<text xml:space="preserve" text-anchor="start" x="110.45" y="-210.97" font-family="DejaVu Sans Mono" font-size="11.00" fill="#d8dde6">something you open</text>
</g>
<!-- b2&#45;&gt;b3 -->
<g id="edge3" class="edge">
<title>b2&#45;&gt;b3</title>
<path fill="none" stroke="#8b93a1" stroke-width="1.2" d="M275.45,-396.41C275.45,-388.05 275.45,-379.38 275.45,-370.7"/>
<polygon fill="#8b93a1" stroke="#8b93a1" stroke-width="1.2" points="278.95,-370.72 275.45,-360.72 271.95,-370.72 278.95,-370.72"/>
<text xml:space="preserve" text-anchor="middle" x="419.83" y="-374.56" font-family="DejaVu Sans Mono" font-size="10.00" fill="#8b93a1"> eight scores on a nine&#45;level rubric, two choices, a confidence each</text>
</g>
<!-- b4 -->
<g id="node5" class="node">
<title>b4</title>
<path fill="#161a22" stroke="#4f8fd6" stroke-width="1.4" d="M453.35,-159.78C453.35,-159.78 97.55,-159.78 97.55,-159.78 91.55,-159.78 85.55,-153.78 85.55,-147.78 85.55,-147.78 85.55,-12 85.55,-12 85.55,-6 91.55,0 97.55,0 97.55,0 453.35,0 453.35,0 459.35,0 465.35,-6 465.35,-12 465.35,-12 465.35,-147.78 465.35,-147.78 465.35,-153.78 459.35,-159.78 453.35,-159.78"/>
<text xml:space="preserve" text-anchor="start" x="99.95" y="-140.69" font-family="DejaVu Sans Mono" font-size="11.00" fill="#d8dde6">INTENT(mode=RETREAT, target=2928,&#45;4720, stance=retreat,</text>
<text xml:space="preserve" text-anchor="start" x="99.95" y="-126.44" font-family="DejaVu Sans Mono" font-size="11.00" fill="#d8dde6">fire=any attacker, use_at_target, ttl=1500ms)</text>
<text xml:space="preserve" text-anchor="start" x="99.95" y="-112.19" font-family="DejaVu Sans Mono" font-size="11.00" fill="#d8dde6">Yamcs HTTP &#45;&gt; CCSDS TC &#45;&gt; UDP &#45;&gt; F Prime CmdDispatcher &#45;&gt; Doom</text>
<text xml:space="preserve" text-anchor="start" x="99.95" y="-97.94" font-family="DejaVu Sans Mono" font-size="11.00" fill="#d8dde6">component &#45;&gt; the onboard executor</text>
<text xml:space="preserve" text-anchor="start" x="99.95" y="-83.69" font-family="DejaVu Sans Mono" font-size="11.00" fill="#d8dde6">telemetry was 83 ms old, jev took 354 ms, the command took 44</text>
<text xml:space="preserve" text-anchor="start" x="99.95" y="-69.44" font-family="DejaVu Sans Mono" font-size="11.00" fill="#d8dde6">ms: 481 ms from observation to effect, against a 900 ms budget</text>
<text xml:space="preserve" text-anchor="start" x="99.95" y="-55.19" font-family="DejaVu Sans Mono" font-size="11.00" fill="#d8dde6">the executor carries this out at 35 Hz for up to 1.5 s without</text>
<text xml:space="preserve" text-anchor="start" x="99.95" y="-40.94" font-family="DejaVu Sans Mono" font-size="11.00" fill="#d8dde6">asking anything &#45;&#45; the player does not stand still waiting for</text>
<text xml:space="preserve" text-anchor="start" x="99.95" y="-26.69" font-family="DejaVu Sans Mono" font-size="11.00" fill="#d8dde6">the next answer</text>
<text xml:space="preserve" text-anchor="start" x="99.95" y="-12.44" font-family="DejaVu Sans Mono" font-size="11.00" fill="#d8dde6">12.3 seconds later the level ended</text>
</g>
<!-- b3&#45;&gt;b4 -->
<g id="edge4" class="edge">
<title>b3&#45;&gt;b4</title>
<path fill="none" stroke="#8b93a1" stroke-width="1.2" d="M275.45,-198.05C275.45,-189.48 275.45,-180.71 275.45,-172.02"/>
<polygon fill="#8b93a1" stroke="#8b93a1" stroke-width="1.2" points="278.95,-172.05 275.45,-162.05 271.95,-172.05 278.95,-172.05"/>
<text xml:space="preserve" text-anchor="middle" x="372.58" y="-176.03" font-family="DejaVu Sans Mono" font-size="10.00" fill="#8b93a1"> one INTENT per decision, with a time to live</text>
</g>
</g>
</svg>
